<?xml version="1.0" encoding="UTF-8" ?>
<!DOCTYPE svg PUBLIC "-//W3C//DTD SVG 1.1//EN" "http://www.w3.org/Graphics/SVG/1.1/DTD/svg11.dtd">
<svg width="91pt" height="80pt" viewBox="0 0 91 80" xmlns="http://www.w3.org/2000/svg">
<g id="_ed8001ff">
<path fill="#ed8001" opacity="1.00" d=" M 37.34 0.94 C 39.64 0.48 42.01 0.64 44.34 0.68 C 44.48 2.76 43.26 4.47 42.27 6.17 C 32.06 23.10 21.95 40.09 11.56 56.91 C 5.82 51.34 1.23 44.07 0.63 35.94 C -0.02 27.13 4.41 18.58 10.91 12.85 C 18.16 6.11 27.87 3.04 37.34 0.94 Z" />
<path fill="#ed8001" opacity="1.00" d=" M 47.65 5.25 C 47.03 3.82 45.28 2.19 46.74 0.71 C 51.61 0.08 56.35 1.68 60.98 2.94 C 69.29 5.26 77.31 9.41 83.05 15.97 C 88.32 21.89 91.45 30.08 90.09 38.03 C 88.84 45.37 84.62 51.89 79.22 56.89 C 68.64 39.72 58.09 22.51 47.65 5.25 Z" />
<path fill="#ed8001" opacity="1.00" d=" M 34.15 36.20 C 42.00 33.29 51.19 33.39 58.75 37.12 C 67.49 41.52 72.18 51.06 73.65 60.36 C 64.85 66.34 55.95 72.18 47.11 78.09 C 46.14 78.90 44.79 79.21 43.79 78.25 C 34.87 72.45 26.17 66.32 17.20 60.61 C 18.24 50.39 24.34 40.12 34.15 36.20 Z" />
</g>
</svg>
