<svg viewBox="0 0 2240.5 376.67" xmlns="http://www.w3.org/2000/svg"><defs><radialGradient cx="481.12" cy="184.77" fx="481.12" fy="232.87" gradientTransform="matrix(.68768 1.2879 1.13659 -.69507 -495.43 -225.04)" gradientUnits="userSpaceOnUse" id="b" r="272.74"><stop offset=".04" stop-color="#25509e"></stop><stop offset=".14" stop-color="#1460aa"></stop><stop offset=".24" stop-color="#096cb4"></stop><stop offset=".59" stop-color="#0aa6e0"></stop><stop offset=".89" stop-color="#04b5e5"></stop></radialGradient><clipPath id="a"><path d="M10.8 43.22v297.62c0 17.54 18.53 28.73 33.86 20.45l275-148.56c16.18-8.74 16.18-32.14 0-40.9l-275-148.57c-3.52-1.91-7.23-2.78-10.84-2.78-12.04 0-23.02 9.74-23.02 23.23" fill="none" stroke-width="0"></path></clipPath></defs><g clip-path="url(#a)"><path d="M-317.8-112.27h663.67v774.19H-317.8z" fill="url(#b)" transform="rotate(-16.9 14.037 274.839)"></path><path d="M10.8 43.22v297.62c0 17.54 18.53 28.73 33.86 20.45l275-148.56c16.18-8.74 16.18-32.14 0-40.9l-275-148.57c-3.52-1.91-7.23-2.78-10.84-2.78-12.04 0-23.02 9.74-23.02 23.23" fill="none"></path></g><path d="M533.22 237.9c5.36-3.48 10.62-7.96 15.76-13.45l2.57-2.57 12.51 14.22c-7.88 9.94-15.62 18.1-23.21 24.5-7.6 6.4-16.44 11.42-26.56 15.07-10.1 3.66-21.83 5.49-35.2 5.49-18.05 0-33.83-3.83-47.36-11.48-13.54-7.65-23.96-18.27-31.27-31.87-7.31-13.59-10.96-29.06-10.96-46.42 0-18.28 3.99-34.55 11.99-48.83 7.99-14.27 19.24-25.41 33.75-33.41 14.5-7.99 31.23-11.99 50.2-11.99 17.13 0 31.97 3.88 44.54 11.66 12.56 7.77 22.16 18.39 28.79 31.86 6.62 13.48 9.93 28.61 9.93 45.4H464.37c.8 10.85 3.62 20.61 8.48 29.3 4.85 8.68 10.88 15.48 18.07 20.39s14.73 7.37 22.62 7.37 14.33-1.74 19.7-5.22m-64.33-106.47c-2.68 10.74-4.26 24.27-4.71 40.6l32.89-3.94c0-15.31-.6-26.76-1.8-34.35-1.19-7.6-2.88-12.57-5.05-14.9-2.17-2.35-5.03-3.51-8.57-3.51-5.83 0-10.08 5.36-12.76 16.1M610.41 277.3c-12.57-2.57-22.73-5.9-30.5-10.01l11.65-50.03h7.19c7.99 9.6 16.36 18.75 25.1 27.49 8.74 8.73 16.36 14.99 22.87 18.76h5.83c8.22 0 14.5-1.17 18.84-3.52 4.34-2.33 6.51-5.45 6.51-9.33 0-4.57-1.6-8.72-4.8-12.42-3.2-3.71-7.28-7.05-12.25-10.03-4.97-2.97-11.56-6.4-19.79-10.28l-3.25-1.54c-11.31-5.37-20.76-10.6-28.35-15.68-7.6-5.07-13.91-11.54-18.93-19.36-5.03-7.82-7.54-17.21-7.54-28.18 0-18.61 7.36-32.6 22.1-41.97 14.73-9.36 34.95-14.05 60.64-14.05 9.25 0 19.21.83 29.89 2.49 10.68 1.65 20.24 3.85 28.69 6.59l-8.56 49.68h-8.57c-9.14-11.99-16.59-21.1-22.36-27.32-5.77-6.23-11.17-10.77-16.19-13.62-1.37-.12-3.77-.17-7.19-.17-12.91 0-19.36 3.59-19.36 10.79 0 5.14 1.51 9.66 4.54 13.54 3.03 3.88 7.08 7.37 12.16 10.45 5.08 3.09 11.67 6.46 19.79 10.11l3.77 1.71c10.73 4.91 19.9 9.88 27.49 14.91 7.6 5.02 13.91 11.45 18.93 19.27s7.54 17.22 7.54 28.18c0 12.22-3.88 22.64-11.65 31.27-7.77 8.63-18.39 15.14-31.86 19.53-13.48 4.4-28.61 6.6-45.4 6.6-12.11 0-24.44-1.29-37-3.86" fill="#2c64ad"></path><path d="M796.41 270.54c-10-7.09-17.7-16.96-23.13-29.64-5.42-12.68-8.14-27.19-8.14-43.51 0-19.42 4.03-36.72 12.08-51.91s19.44-27.03 34.17-35.54 31.92-12.76 51.57-12.76c9.7 0 18.39 1.26 26.04 3.77V56.92l-14.57-20.39v-6.68l87.2-17.98 4.45 4.8-2.91 37.52v170.97l16.78 32.88v5.83l-80.51 17.3-8.22-27.24c-16.56 18.15-36.6 27.24-60.13 27.24-13.14 0-24.7-3.54-34.69-10.62m84.88-26.73c3.2-1.49 5.77-3.31 7.71-5.48v-98.33c-.69-8.57-2.4-14.9-5.14-19.01-2.74-4.12-7.31-6.17-13.71-6.17-9.37 0-16.44 4.94-21.24 14.82-4.79 9.88-7.19 26.75-7.19 50.62s2.48 39.37 7.45 49.94c4.97 10.57 12.71 15.85 23.21 15.85 2.74 0 5.71-.74 8.91-2.23M1006.27 270.19l14.56-28.95v-90.45l-14.56-28.44v-6.86l86.68-17.98 4.62 4.45-2.57 25.01v114.27l14.57 28.95v6.86h-103.3v-6.86Zm27.92-190.42c-5.94-3.13-10.6-7.48-13.96-13.02-3.37-5.54-5.05-11.9-5.05-19.1s1.68-13.22 5.05-18.76 8.02-9.91 13.96-13.1c5.94-3.2 12.68-4.8 20.21-4.8s14.36 1.6 20.47 4.8c6.11 3.2 10.88 7.6 14.31 13.19 3.42 5.6 5.14 11.82 5.14 18.67 0 7.2-1.71 13.56-5.14 19.1-3.43 5.54-8.17 9.88-14.22 13.02-6.05 3.15-12.9 4.72-20.55 4.72s-14.28-1.57-20.21-4.72M1151.28 276.62c-6.91-3.03-12.33-7.4-16.28-13.1-3.94-5.71-5.91-12.51-5.91-20.39 0-12.22 4.28-22.84 12.84-31.87 8.57-9.02 20.13-16.3 34.69-21.84 14.56-5.54 30.86-9.34 48.91-11.39v-18.51c0-9.36-2.32-15.93-6.94-19.7-4.62-3.77-12.31-5.65-23.03-5.65-7.2 0-15.39 1.37-24.59 4.11-9.19 2.74-16.94 6.34-23.21 10.79l-11.14-16.96c12.22-10.27 26.9-18.67 44.03-25.18s34.21-9.77 51.22-9.77 30.5 2.49 40.43 7.45c9.94 4.97 16.99 12.08 21.16 21.33 4.16 9.25 6.25 20.67 6.25 34.26v64.93l16.96 33.23v5.49l-80.69 17.3-8.05-27.24c-7.08 8.34-15.25 14.97-24.5 19.87-9.25 4.91-18.85 7.37-28.78 7.37-8.68 0-16.48-1.52-23.38-4.54m74.26-38.98v-42.14c-8.56 1.36-15.08 4.63-19.53 9.76-4.45 5.14-6.68 11.31-6.68 18.5 0 6.4 1.34 11.39 4.03 14.98 2.68 3.6 5.96 5.4 9.85 5.4 4.57 0 8.68-2.16 12.33-6.51M1336.73 269.85l14.56-28.61v-90.45l-14.56-28.61v-6.68l82.22-17.99 4.63 4.46-2.57 25.01h4.45c2.28-4.34 6.26-8.82 11.91-13.45s12.33-8.51 20.04-11.65c7.71-3.13 15.68-4.71 23.9-4.71 6.28 0 11.6.91 15.94 2.74l-11.31 69.73-6.85.17c-11.76-14.73-22.73-22.1-32.89-22.1-4 0-7.57.78-10.7 2.31-3.14 1.54-6.49 3.91-10.02 7.11v84.11l14.56 28.61v7.2h-103.3v-7.2h-.01ZM1509.07 270.19l14.56-28.95v-90.45l-14.56-28.44v-6.86l86.68-17.98 4.63 4.45-2.57 25.01v114.27l14.56 28.95v6.86h-103.3v-6.86Zm27.92-190.42c-5.94-3.13-10.6-7.48-13.96-13.02-3.37-5.54-5.05-11.9-5.05-19.1s1.68-13.22 5.05-18.76 8.02-9.91 13.96-13.1c5.94-3.2 12.68-4.8 20.21-4.8s14.36 1.6 20.46 4.8c6.11 3.2 10.88 7.6 14.31 13.19 3.42 5.6 5.14 11.82 5.14 18.67 0 7.2-1.71 13.56-5.14 19.1-3.43 5.54-8.17 9.88-14.22 13.02-6.06 3.15-12.9 4.72-20.55 4.72s-14.28-1.57-20.21-4.72M1679.1 269.17c-15.25-7.99-27.21-18.99-35.9-32.98-8.67-13.99-13.01-29.67-13.01-47.03s4.37-32.86 13.11-46.86c8.73-13.98 20.72-25.01 35.97-33.06 15.24-8.05 32.23-12.07 50.96-12.07s36.08 4.02 51.39 12.07c15.3 8.06 27.33 19.08 36.06 33.06 8.74 13.99 13.11 29.62 13.11 46.86s-4.37 33.03-13.11 47.03c-8.73 13.99-20.76 24.98-36.06 32.98-15.31 7.99-32.43 11.99-51.39 11.99s-35.89-4-51.14-11.99m69.29-21.84c4.23-10.79 6.34-29.61 6.34-56.45 0-50.7-8.17-76.06-24.49-76.06-7.54 0-13.37 5.91-17.48 17.73-4.11 11.82-6.17 31.27-6.17 58.33s2.08 45.52 6.25 56.37c4.16 10.85 10.07 16.28 17.73 16.28s13.59-5.4 17.82-16.19" fill="#00a1e0"></path></svg>