<?xml version="1.0" encoding="UTF-8"?>
<svg version="1.1" xmlns="http://www.w3.org/2000/svg" width="2560" height="307">
<path d="M0 0 C9.31528902 7.08017497 13.89315426 14.05028115 17.37109375 25.1796875 C20.08337172 22.56195516 22.43457211 19.88914259 24.68359375 16.8671875 C35.65907586 2.68955628 51.44133377 -7.10685923 69.37109375 -9.8203125 C73.12609543 -10.10643082 76.85626542 -10.15469195 80.62109375 -10.1328125 C82.14343628 -10.12435303 82.14343628 -10.12435303 83.6965332 -10.11572266 C99.4836987 -9.86074485 113.46550513 -5.60792677 125.109375 5.4921875 C134.77199238 16.97384684 136.68416599 29.91958025 136.59814453 44.41040039 C136.59843658 45.70893951 136.59872864 47.00747864 136.59902954 48.34536743 C136.5995997 51.87990222 136.58790049 55.41429925 136.57388163 58.94880223 C136.56131761 62.65233857 136.56019932 66.35587862 136.55783081 70.05943298 C136.55163262 77.06090021 136.53524446 84.06230443 136.51513183 91.06374401 C136.49272092 99.03960828 136.48176638 107.01547568 136.47174096 114.99136364 C136.45087662 131.38750943 136.41532688 147.78358791 136.37109375 164.1796875 C143.96109375 164.1796875 151.55109375 164.1796875 159.37109375 164.1796875 C159.37109375 166.4896875 159.37109375 168.7996875 159.37109375 171.1796875 C127.36109375 171.1796875 95.35109375 171.1796875 62.37109375 171.1796875 C62.37109375 169.1996875 62.37109375 167.2196875 62.37109375 165.1796875 C69.96109375 165.1796875 77.55109375 165.1796875 85.37109375 165.1796875 C85.28655872 147.93269903 85.191751 130.68581004 85.08356667 113.43895435 C85.03358217 105.42978104 84.98713844 97.42061723 84.94921875 89.41137695 C84.91613394 82.4252818 84.87621355 75.4392637 84.82830369 68.45325392 C84.80320141 64.75898379 84.78137351 61.06476368 84.76774979 57.3704319 C84.75236064 53.23227615 84.72170102 49.09436137 84.68994141 44.95629883 C84.68778122 43.75003845 84.68562103 42.54377808 84.68339539 41.30096436 C84.78178449 26.02559018 84.78178449 26.02559018 79.37109375 12.1796875 C73.0295495 7.46418024 66.00890289 7.53717038 58.37109375 8.1796875 C47.37831208 10.54882148 38.83097799 15.95916897 32.37109375 25.1796875 C22.51190049 41.19009755 22.76777323 57.7454983 22.76171875 75.921875 C22.74671775 78.5026248 22.72998661 81.08336506 22.71160889 83.66409302 C22.67256521 89.72686252 22.65077209 95.7894616 22.63763499 101.8523351 C22.62167298 108.76435224 22.58321968 115.67618994 22.54304171 122.5881021 C22.46101097 136.78525644 22.40965721 150.98235009 22.37109375 165.1796875 C29.63109375 165.1796875 36.89109375 165.1796875 44.37109375 165.1796875 C44.37109375 167.4896875 44.37109375 169.7996875 44.37109375 172.1796875 C11.04109375 172.1796875 -22.28890625 172.1796875 -56.62890625 172.1796875 C-56.62890625 169.8696875 -56.62890625 167.5596875 -56.62890625 165.1796875 C-49.03890625 165.1796875 -41.44890625 165.1796875 -33.62890625 165.1796875 C-33.71347352 148.08035317 -33.808294 130.9811188 -33.91643333 113.88191795 C-33.96639896 105.94115468 -34.01284265 98.00040091 -34.05078125 90.05957031 C-34.08388596 83.13242896 -34.12381676 76.20536501 -34.17169631 69.27830946 C-34.19677918 65.61586561 -34.2186124 61.95347187 -34.23225021 58.29096603 C-34.2476622 54.18654141 -34.27832494 50.08235828 -34.31005859 45.97802734 C-34.31221878 44.78471298 -34.31437897 43.59139862 -34.31660461 42.36192322 C-34.09608693 25.76375776 -34.09608693 25.76375776 -40.62890625 11.1796875 C-46.49869611 7.26649426 -53.86040681 7.43414734 -60.62890625 8.1796875 C-68.41797265 9.88595576 -74.77902094 12.74855754 -80.62890625 18.1796875 C-81.53576172 19.00726563 -81.53576172 19.00726563 -82.4609375 19.8515625 C-93.20190839 30.80314067 -95.91756879 46.1452688 -95.94775391 60.84985352 C-95.95779953 61.98258194 -95.96784515 63.11531036 -95.97819519 64.28236389 C-96.00890738 67.99943569 -96.02602917 71.71643586 -96.04296875 75.43359375 C-96.06169 78.02148551 -96.08126412 80.60937122 -96.10165405 83.19725037 C-96.14765368 89.29555426 -96.18509793 95.39385484 -96.21832693 101.49223989 C-96.25666876 108.44037775 -96.30604693 115.38842383 -96.35631108 122.33648407 C-96.45937862 136.61748844 -96.54726369 150.89854495 -96.62890625 165.1796875 C-89.36890625 165.1796875 -82.10890625 165.1796875 -74.62890625 165.1796875 C-74.62890625 167.4896875 -74.62890625 169.7996875 -74.62890625 172.1796875 C-107.95890625 172.1796875 -141.28890625 172.1796875 -175.62890625 172.1796875 C-175.62890625 169.8696875 -175.62890625 167.5596875 -175.62890625 165.1796875 C-167.70890625 165.1796875 -159.78890625 165.1796875 -151.62890625 165.1796875 C-151.62890625 112.0496875 -151.62890625 58.9196875 -151.62890625 4.1796875 C-159.54890625 4.1796875 -167.46890625 4.1796875 -175.62890625 4.1796875 C-175.62890625 1.8696875 -175.62890625 -0.4403125 -175.62890625 -2.8203125 C-175.04913528 -2.82395813 -174.46936432 -2.82760376 -173.87202454 -2.83135986 C-167.72102745 -2.87386314 -161.57073052 -2.94365499 -155.42016602 -3.02783203 C-153.13866249 -3.05569235 -150.85706869 -3.07707634 -148.57543945 -3.09130859 C-134.2427873 -3.18595521 -120.69922314 -4.13815578 -106.70671082 -7.35150146 C-104.35626169 -7.88182877 -101.99164955 -8.34776384 -99.62890625 -8.8203125 C-99.29890625 2.3996875 -98.96890625 13.6196875 -98.62890625 25.1796875 C-95.65890625 21.2196875 -92.68890625 17.2596875 -89.62890625 13.1796875 C-67.97973771 -11.40496152 -27.68505786 -19.16974289 0 0 Z " fill="#1E201E" transform="translate(1560.62890625,119.8203125)"/>
<path d="M0 0 C72.93 0 145.86 0 221 0 C221 25.41 221 50.82 221 77 C218.69 77 216.38 77 214 77 C213.84144531 75.9584375 213.68289063 74.916875 213.51953125 73.84375 C210.63237407 55.7457883 206.13913373 33.84365068 190.6015625 22.203125 C162.00307663 3.02820897 128.49427665 7.63196748 95 7 C95 46.93 95 86.86 95 128 C122.69977232 128.41275086 122.69977232 128.41275086 146.00390625 116.03125 C157.01663629 102.90160209 158.28777097 87.325039 159 71 C161.31 71 163.62 71 166 71 C166 111.26 166 151.52 166 193 C163.69 193 161.38 193 159 193 C158.96132813 191.43765625 158.96132813 191.43765625 158.921875 189.84375 C158.43117469 175.8907934 156.93195644 160.36794456 148 149 C132.82307949 134.86001195 116.61202601 136.79277023 96 136 C96 180.88 96 225.76 96 272 C154.0081937 274.75174433 154.0081937 274.75174433 206.87109375 251.37890625 C222.27162424 234.1698731 225.20622198 211.11629806 226 189 C228.31 189 230.62 189 233 189 C233 218.7 233 248.4 233 279 C156.11 279 79.22 279 0 279 C0 276.69 0 274.38 0 272 C10.89 272 21.78 272 33 272 C33 184.88 33 97.76 33 8 C22.11 8 11.22 8 0 8 C0 5.36 0 2.72 0 0 Z " fill="#FF6500" transform="translate(300,13)"/>
<path d="M0 0 C0.33 11.88 0.66 23.76 1 36 C2.98 33.03 4.96 30.06 7 27 C16.7975331 13.16818857 35.62431846 4.10573271 52 1 C71.4778191 -2.18235515 90.02182691 0.47960967 106.4375 11.66015625 C115.69978668 19.08051092 120.8350515 30.67833328 122.28914547 42.3136797 C122.96807162 49.40495315 123.13657694 56.41909239 123.11352539 63.53979492 C123.11367142 64.74109039 123.11381744 65.94238586 123.1139679 67.18008423 C123.11339529 70.43761107 123.10841961 73.69509357 123.10139394 76.95261168 C123.09509413 80.37053083 123.0945514 83.78845107 123.09336853 87.20637512 C123.0902746 93.66234786 123.08208762 100.11830342 123.07201904 106.57426864 C123.06079735 113.93109237 123.05533227 121.28791697 123.05032361 128.64474714 C123.03990315 143.76317586 123.02158209 158.88158232 123 174 C130.59 174 138.18 174 146 174 C146 176.31 146 178.62 146 181 C112.34 181 78.68 181 44 181 C44 178.69 44 176.38 44 174 C51.26 174 58.52 174 66 174 C65.93877247 155.64083196 65.86184915 137.28181794 65.76428509 118.92280674 C65.71937393 110.39785056 65.67994853 101.87293571 65.65356445 93.34790039 C65.63054641 85.91501376 65.59710601 78.48225847 65.55129844 71.04947609 C65.5274174 67.11609495 65.50865517 63.18284347 65.50238609 59.24939156 C65.49631194 55.54176755 65.47622882 51.83447507 65.44572449 48.12697411 C65.43283463 46.12845093 65.4345078 44.12985014 65.4367218 42.13128662 C65.35540842 34.302375 64.99364165 27.02593187 60.1875 20.5625 C54.06955308 16.19253791 47.24227285 16.42318181 40 17 C32.6207133 18.27821705 26.85030661 21.40723593 21 26 C20.38253906 26.47953125 19.76507812 26.9590625 19.12890625 27.453125 C7.41983327 37.78005796 4.98163116 53.30027974 4 68 C3.85946341 71.69790888 3.81714221 75.39244389 3.79467773 79.09277344 C3.78477814 80.12840424 3.77487854 81.16403503 3.76467896 82.23104858 C3.73344006 85.60713524 3.70845755 88.98323591 3.68359375 92.359375 C3.66299162 94.71877377 3.64199436 97.07816913 3.62062073 99.43756104 C3.56573637 105.61219492 3.5161804 111.78686024 3.46777344 117.96154785 C3.41731098 124.27647662 3.36175478 130.59136042 3.30664062 136.90625 C3.19947119 149.27079614 3.09840814 161.63538102 3 174 C10.59 174 18.18 174 26 174 C26 176.31 26 178.62 26 181 C-8.32 181 -42.64 181 -78 181 C-78 178.69 -78 176.38 -78 174 C-70.08 174 -62.16 174 -54 174 C-54 120.87 -54 67.74 -54 13 C-61.92 13 -69.84 13 -78 13 C-78 10.69 -78 8.38 -78 6 C-77.39739349 5.99635437 -76.79478699 5.99270874 -76.17391968 5.98895264 C-69.77948319 5.94644273 -63.38571978 5.87664657 -56.99169922 5.79248047 C-54.62002364 5.76462361 -52.2482613 5.743238 -49.87646484 5.72900391 C-33.13203458 5.62262252 -16.11463188 0 0 0 Z " fill="#1E211E" transform="translate(1024,111)"/>
<path d="M0 0 C8.97217079 8.53681229 12.39705074 19.5200985 12.79956055 31.65304565 C12.88004583 36.54901646 12.84640776 41.44278471 12.78799438 46.33886528 C12.74922235 49.62449334 12.73003625 52.90975202 12.71557617 56.1955719 C12.67575792 64.35197128 12.60310743 72.50801492 12.53137207 80.66418457 C12.47186057 87.57444917 12.42507784 94.48458087 12.39468384 101.3950367 C12.37544735 104.6088558 12.33793373 107.82211262 12.29956055 111.03575134 C11.47007475 128.03473489 11.47007475 128.03473489 16.92895508 143.51560974 C19.30993712 145.22370458 21.64006392 145.21857267 24.5 145.09765625 C28.20918013 144.3600352 30.06524693 142.41705568 32.5625 139.6875 C34.69420033 135.50023149 36.14378786 131.16189982 37.5625 126.6875 C39.8725 126.6875 42.1825 126.6875 44.5625 126.6875 C42.29269755 139.66043598 38.6695943 149.79993939 28.5625 158.6875 C15.4014681 167.18317301 1.84492592 167.97067666 -13.25390625 165.4453125 C-21.33410458 163.52192787 -29.41864016 159.27384475 -34.0625 152.21875 C-35.11423567 150.45911533 -36.14210009 148.68489716 -37.140625 146.89453125 C-38.3746408 144.58275153 -38.3746408 144.58275153 -40.4375 142.6875 C-40.96537109 143.54021484 -40.96537109 143.54021484 -41.50390625 144.41015625 C-49.36515944 156.70490994 -59.1489856 163.98992885 -73.6484375 167.22265625 C-97.56154135 170.15632569 -124.51581908 167.82074489 -144.0546875 152.65625 C-152.52584506 145.51735164 -158.68087451 136.79815625 -160.4375 125.6875 C-161.70326899 110.74313815 -159.4266398 98.37608401 -149.65625 86.52734375 C-128.00404272 63.49968888 -91.11818641 61.10644099 -61.4375 59.6875 C-54.76713203 59.50994956 -48.10816938 59.57944743 -41.4375 59.6875 C-41.53240267 54.81660143 -41.63876134 49.9461226 -41.75488281 45.07568359 C-41.79271811 43.42535912 -41.82764187 41.77496481 -41.859375 40.12451172 C-41.86173474 16.79184147 -41.86173474 16.79184147 -50.5625 -4.25 C-62.0256861 -12.47359003 -77.38251982 -12.74089204 -90.9296875 -10.81640625 C-98.09369849 -9.2031366 -104.2026061 -6.5473939 -109.4375 -1.3125 C-109.65302355 0.67858683 -109.65302355 0.67858683 -108.4375 2.6875 C-106.80635741 3.68615873 -105.16585802 4.67352599 -103.4765625 5.5703125 C-97.6241619 8.77680019 -92.7466499 12.21615024 -90.05859375 18.48828125 C-88.08575626 25.47386304 -88.89707095 33.33589971 -92.4375 39.6875 C-97.46940875 45.50807437 -102.49455122 48.37578844 -110.2421875 48.98828125 C-111.59882647 49.00759577 -112.95576873 49.01107339 -114.3125 49 C-115.02067871 48.99508545 -115.72885742 48.9901709 -116.45849609 48.98510742 C-124.78872604 48.79800827 -130.48655834 46.77369033 -136.4375 40.6875 C-141.28394412 32.91460879 -142.70711159 25.05422871 -140.90625 16.0234375 C-139.49599243 10.94957602 -137.76056234 6.84132793 -134.4375 2.6875 C-134.01339844 2.14738281 -133.58929687 1.60726562 -133.15234375 1.05078125 C-121.06332638 -12.70781908 -99.11516623 -17.90248078 -81.62304688 -19.18359375 C-53.56164411 -20.83868989 -22.76053482 -18.29431667 0 0 Z M-70.5 67.9375 C-71.28455566 68.07172363 -72.06911133 68.20594727 -72.87744141 68.34423828 C-81.39207882 69.89733359 -88.7184722 71.7910253 -94.4375 78.6875 C-95.09621094 79.43644531 -95.75492188 80.18539062 -96.43359375 80.95703125 C-101.44494805 87.78536782 -103.0969693 97.3222894 -103.4375 105.6875 C-103.47746094 106.46738281 -103.51742187 107.24726563 -103.55859375 108.05078125 C-103.88432719 120.67774219 -103.71597052 137.06392566 -95.8125 147.5 C-90.53948783 153.00338649 -85.13568399 154.82131356 -77.55029297 155.15820312 C-66.90016043 155.30588234 -59.91378378 152.76885857 -52.15234375 145.453125 C-41.78420363 134.77795568 -41.27089256 119.02806488 -41.33984375 104.96875 C-41.3412587 103.87026733 -41.34267365 102.77178467 -41.34413147 101.64001465 C-41.34969743 98.15581457 -41.36224361 94.67168042 -41.375 91.1875 C-41.3800194 88.8151051 -41.38458154 86.44270918 -41.38867188 84.0703125 C-41.3996557 78.27601944 -41.4163597 72.48176443 -41.4375 66.6875 C-56.0266756 66.38765313 -56.0266756 66.38765313 -70.5 67.9375 Z " fill="#1E201E" transform="translate(2294.4375,130.3125)"/>
<path d="M0 0 C1.79906275 1.40200933 3.56785561 2.84332578 5.3125 4.3125 C5.86534668 4.77785156 6.41819336 5.24320313 6.98779297 5.72265625 C27.8560969 23.53331237 38.28069737 46.71317532 40.53125 73.9609375 C41.16843519 91.64282643 35.76618583 112.94186133 25.3125 127.3125 C24.75175781 128.09238281 24.19101562 128.87226563 23.61328125 129.67578125 C8.67778273 149.30797741 -12.06102953 165.32480262 -37.08984375 168.87890625 C-65.61443977 172.01552137 -92.46068105 167.05496666 -115.375 149.0625 C-133.50156367 133.49122284 -146.54807034 113.39998246 -149.6875 89.3125 C-151.05524338 65.71775174 -147.80024638 40.12019732 -132.140625 21.2421875 C-129.40950413 18.1791945 -126.55809559 15.24469636 -123.6875 12.3125 C-122.62982422 11.17941406 -122.62982422 11.17941406 -121.55078125 10.0234375 C-90.83984456 -22.24484892 -35.87002097 -24.80485368 0 0 Z M-81.93359375 0.140625 C-86.32548153 5.57913191 -88.37837652 11.67695174 -89.41479492 18.50732422 C-89.53668529 19.28043379 -89.65857565 20.05354336 -89.78415966 20.85008049 C-91.14046689 30.27513892 -91.10179975 39.69316346 -91.05078125 49.1953125 C-91.05026053 51.14907836 -91.0507864 53.10284475 -91.05229187 55.05661011 C-91.05220297 59.11903879 -91.04194281 63.18126563 -91.02368164 67.24365234 C-91.00096738 72.40498323 -91.00046513 77.56602121 -91.00719929 82.72738838 C-91.01056787 86.75127689 -91.00385577 90.77510074 -90.99407005 94.7989769 C-90.99026968 96.70043472 -90.98904791 98.6018998 -90.9906559 100.50336075 C-91.62090504 128.5882618 -91.62090504 128.5882618 -80.6875 153.3125 C-74.1510189 159.70168011 -65.07240838 161.39219235 -56.1875 161.6875 C-44.67866922 161.28892577 -36.4638153 158.0888153 -28.375 150 C-16.58932861 131.23022705 -20.21827016 102.57158917 -20.29638672 81.42041016 C-20.3134777 76.75101143 -20.30333385 72.08212568 -20.28605652 67.41274452 C-18.19625377 30.85984791 -18.19625377 30.85984791 -30.8125 -1.625 C-40.05029187 -9.64780045 -50.71303965 -9.63497117 -62.39990234 -8.91064453 C-70.26204018 -8.14372949 -76.06169653 -4.9830175 -81.93359375 0.140625 Z " fill="#FF6500" transform="translate(893.6875,128.6875)"/>
<path d="M0 0 C1.96996948 0.0146228 1.96996948 0.0146228 3.97973633 0.02954102 C25.58958147 0.42239886 46.07410054 6.45981531 62.25 21.4375 C63.22195313 22.27023438 64.19390625 23.10296875 65.1953125 23.9609375 C83.69256582 39.97114072 94.0661243 62.14188286 96.25 86.4375 C97.7516332 107.7016987 91.55775506 132.48803075 77.41796875 148.78125 C74.89212351 151.59525732 72.28236971 154.31875891 69.63232422 157.015625 C68.45777022 158.2237851 67.32026825 159.46779097 66.19140625 160.71875 C52.92410138 175.09879657 31.67384041 184.54374134 12.31591797 185.59716797 C-17.41874021 186.68178317 -43.112016 180.35517207 -65.31298828 159.80029297 C-82.87854273 143.14196389 -93.43387727 121.46910495 -94.15234375 97.171875 C-94.45537507 71.44788264 -86.71711054 48.18709777 -68.75 29.4375 C-68.07324219 28.68597656 -67.39648438 27.93445313 -66.69921875 27.16015625 C-49.28175027 8.49623993 -25.18116855 -0.2105367 0 0 Z M-17.75 11.4375 C-18.41128906 11.81132813 -19.07257813 12.18515625 -19.75390625 12.5703125 C-27.42472424 17.40661111 -29.61520563 25.06745302 -31.75 33.4375 C-32.32631622 36.57431872 -32.65771853 39.69773119 -32.921875 42.875 C-33.00145447 43.79837158 -33.08103394 44.72174316 -33.1630249 45.6730957 C-34.17412476 59.01929116 -34.05040514 72.41990942 -34.01074219 85.79589844 C-33.99934849 89.66141339 -34.00612725 93.52665294 -34.01761818 97.39215851 C-35.8038315 134.63338622 -35.8038315 134.63338622 -23.75 168.4375 C-15.82985078 176.00564259 -7.13951725 177.81025102 3.5078125 177.6484375 C12.33311636 176.96956797 20.64984461 174.54530509 27.25 168.4375 C41.35187576 149.83447201 37.57977263 118.49554084 37.51074219 96.36083984 C37.4993485 92.67691505 37.50612933 88.99327927 37.51761818 85.30936432 C39.25379527 48.6687142 39.25379527 48.6687142 27.25 15.4375 C25.42161144 13.59438095 25.42161144 13.59438095 23.4375 12.1875 C22.81230469 11.70796875 22.18710938 11.2284375 21.54296875 10.734375 C10.88576931 4.70679371 -7.34469348 5.13250239 -17.75 11.4375 Z " fill="#1E201E" transform="translate(1276.75,112.5625)"/>
<path d="M0 0 C0 91.41 0 182.82 0 277 C7.92 277 15.84 277 24 277 C24 279.31 24 281.62 24 284 C-9.99 284 -43.98 284 -79 284 C-79 281.69 -79 279.38 -79 277 C-71.41 277 -63.82 277 -56 277 C-56 189.88 -56 102.76 -56 13 C-63.26 13 -70.52 13 -78 13 C-78 10.36 -78 7.72 -78 5 C-77.41880402 4.99635437 -76.83760803 4.99270874 -76.23880005 4.98895264 C-39.25530836 5.15273272 -39.25530836 5.15273272 -2.69091797 0.35131836 C-1 0 -1 0 0 0 Z " fill="#1E211E" transform="translate(265,8)"/>
<path d="M0 0 C3.61863302 3.04187333 6.9564667 6.32835389 10.29492188 9.671875 C10.94847656 10.25453125 11.60203125 10.8371875 12.27539062 11.4375 C29.44087651 26.99249408 33.00134118 48.68100313 34.29492188 70.671875 C-1.01507813 70.671875 -36.32507813 70.671875 -72.70507812 70.671875 C-75.05697508 113.83742478 -75.05697508 113.83742478 -57.70507812 152.671875 C-48.24739406 160.55655548 -36.6478981 161.62359758 -24.77539062 160.87890625 C-10.58019501 159.45938669 3.19344823 151.11535941 12.27929688 140.3125 C21.00894258 128.87598741 26.92368683 116.31096895 31.29492188 102.671875 C33.60492188 102.671875 35.91492188 102.671875 38.29492188 102.671875 C35.64987614 124.6075129 23.99250803 143.84565077 7.41992188 158.046875 C-10.57248363 171.76216351 -34.3847565 173.86340779 -56.20507812 171.2109375 C-80.21542012 167.16157427 -101.06129251 154.94381651 -115.83398438 135.44140625 C-130.96478324 113.04529687 -136.06632344 85.27457371 -130.98632812 58.6953125 C-125.77734444 34.3196366 -111.70886894 12.34363365 -90.64257812 -1.328125 C-84.61179312 -5.0584647 -78.42173732 -8.05355914 -71.70507812 -10.328125 C-70.80660156 -10.64652344 -69.908125 -10.96492188 -68.98242188 -11.29296875 C-46.613658 -17.82597247 -18.61800119 -14.50199406 0 0 Z M-64.70507812 -2.328125 C-72.34011265 6.94439755 -72.86550296 17.71751073 -72.80273438 29.19921875 C-72.80172729 30.07678833 -72.80072021 30.95435791 -72.79968262 31.85852051 C-72.79448574 35.1088188 -72.7805247 38.35909834 -72.76757812 41.609375 C-72.74695313 48.89 -72.72632813 56.170625 -72.70507812 63.671875 C-56.53507812 63.671875 -40.36507812 63.671875 -23.70507812 63.671875 C-23.66382813 56.659375 -23.62257812 49.646875 -23.58007812 42.421875 C-23.56187012 40.23401367 -23.54366211 38.04615234 -23.52490234 35.79199219 C-22.75243691 16.76783868 -22.75243691 16.76783868 -29.70507812 -0.328125 C-38.42721297 -7.37631477 -55.61693903 -10.56497006 -64.70507812 -2.328125 Z " fill="#1E201E" transform="translate(134.705078125,126.328125)"/>
<path d="M0 0 C0.68835938 0.52207031 1.37671875 1.04414062 2.0859375 1.58203125 C3.11847656 2.34966797 3.11847656 2.34966797 4.171875 3.1328125 C13.63419764 10.72804849 18.94346485 20.94342395 20.36328125 32.921875 C20.70562966 40.71372474 18.83335877 47.90397492 13.8359375 53.95703125 C7.80844483 60.26487241 1.60527723 62.69664877 -7.0390625 62.89453125 C-15.3144244 62.80175813 -21.71535984 60.95736837 -27.8515625 55.26953125 C-32.85174401 49.77521415 -34.60104595 43.65124639 -35.1640625 36.33203125 C-34.51245111 26.55786045 -30.1147132 19.42517976 -22.9765625 12.89453125 C-20.66671704 10.77751164 -20.66671704 10.77751164 -20.7265625 8.01953125 C-22.99197808 3.3694677 -27.31920416 1.67388813 -31.98046875 -0.0078125 C-37.13182043 -1.67568963 -41.96716641 -1.9176171 -47.3515625 -1.85546875 C-48.27735107 -1.84717041 -49.20313965 -1.83887207 -50.15698242 -1.83032227 C-59.86638408 -1.58940908 -67.03154128 0.69040819 -74.1640625 7.4921875 C-86.0290641 21.66133003 -85.06715076 44.91787495 -85.08203125 62.3046875 C-85.0852588 63.69933605 -85.08862388 65.09398429 -85.09211731 66.4886322 C-85.09806032 69.39729596 -85.09996236 72.30593023 -85.09936523 75.21459961 C-85.09928422 78.15541771 -85.10619535 81.09607923 -85.11987305 84.03686523 C-86.67512729 122.60685902 -86.67512729 122.60685902 -72.7890625 157.26953125 C-63.06388926 165.0919532 -51.2169351 167.81540194 -38.9140625 166.58203125 C-22.09117573 163.59129582 -8.47482129 156.57735527 2.1875 142.8828125 C8.17022018 133.85602103 12.49056894 123.76890884 16.0859375 113.58203125 C18.3959375 113.58203125 20.7059375 113.58203125 23.0859375 113.58203125 C21.72404301 128.25713927 15.57774654 141.38967873 6.0859375 152.58203125 C5.37050781 153.44441406 4.65507813 154.30679688 3.91796875 155.1953125 C-8.09206098 168.452615 -24.80629412 173.24016752 -42.22265625 174.45703125 C-70.91040924 175.78940875 -97.42972317 168.1298111 -118.9140625 148.58203125 C-136.03951953 132.19392028 -145.70865853 110.77405178 -146.31616211 87.1887207 C-146.48264567 71.10870526 -144.60265093 56.9225445 -136.9140625 42.58203125 C-136.43453125 41.64359375 -135.955 40.70515625 -135.4609375 39.73828125 C-131.06653223 31.63209678 -125.46808826 24.88834516 -119.29638672 18.10205078 C-118.13540725 16.82542447 -116.99315015 15.53180673 -115.85546875 14.234375 C-88.5194369 -15.33556914 -33.18872245 -23.66343929 0 0 Z " fill="#FF6500" transform="translate(703.9140625,122.41796875)"/>
<path d="M0 0 C2.31 0 4.62 0 7 0 C7 27.06 7 54.12 7 82 C19.21 82 31.42 82 44 82 C44 84.31 44 86.62 44 89 C31.79 89 19.58 89 7 89 C7.06304804 106.60363998 7.13837672 124.20708522 7.23571491 141.81056309 C7.28053167 149.98559333 7.3199782 158.16058138 7.34643555 166.33569336 C7.36953073 173.46759566 7.40305534 180.59936284 7.44870156 187.73115772 C7.47247982 191.50152754 7.49130872 195.27176483 7.49761391 199.04220772 C7.50373545 202.60375571 7.52398371 206.16496526 7.55427551 209.72638702 C7.56702296 211.63071735 7.56550531 213.53512721 7.5632782 215.4394989 C7.49230377 229.8585842 7.49230377 229.8585842 12.47780323 242.88611698 C15.57384172 245.15167474 19.27470316 245.0934439 23 245 C31.76611346 242.43062192 37.12290982 236.38953057 42 229 C44.31 229.99 46.62 230.98 49 232 C46.09167089 241.30665314 38.34775676 249.08304177 29.94921875 253.6640625 C12.20948004 262.12743961 -6.19350033 264.97788668 -25.1875 258.4375 C-33.66479663 254.69589188 -40.31966026 248.2072042 -44.04296875 239.734375 C-48.43403943 227.18845878 -49.15532202 214.56046583 -49.11352539 201.39013672 C-49.11367142 200.16948013 -49.11381744 198.94882355 -49.1139679 197.69117737 C-49.11339455 194.37573455 -49.10841254 191.0603556 -49.10139394 187.74492407 C-49.09510186 184.2682753 -49.094552 180.7916255 -49.09336853 177.31497192 C-49.09027236 170.74563495 -49.08208229 164.17631481 -49.07201904 157.60698521 C-49.0608044 150.12201294 -49.05533402 142.63703982 -49.05032361 135.15206122 C-49.03989808 119.76803083 -49.02212842 104.38401826 -49 89 C-56.26 89 -63.52 89 -71 89 C-71 86.69 -71 84.38 -71 82 C-70.00742188 81.91363281 -69.01484375 81.82726562 -67.9921875 81.73828125 C-53.42999785 80.30534302 -41.35500433 76.64001957 -30 67 C-29.28199219 66.39414063 -28.56398438 65.78828125 -27.82421875 65.1640625 C-10.30336292 49.03807092 -3.04923167 22.80097117 0 0 Z " fill="#1E201E" transform="translate(2080,35)"/>
<path d="M0 0 C4.40666722 1.40114644 8.22767667 2.11268136 12.84619141 1.6262207 C13.62994141 0.6362207 14.41369141 -0.3537793 15.22119141 -1.3737793 C16.08744141 -2.3637793 16.95369141 -3.3537793 17.84619141 -4.3737793 C20.81619141 -4.3737793 23.78619141 -4.3737793 26.84619141 -4.3737793 C26.84619141 14.4362207 26.84619141 33.2462207 26.84619141 52.6262207 C23.87619141 52.6262207 20.90619141 52.6262207 17.84619141 52.6262207 C17.41048828 51.59883789 16.97478516 50.57145508 16.52587891 49.51293945 C9.28281121 32.58718482 1.47537958 15.02365505 -15.90380859 6.45043945 C-27.48602436 2.20764861 -42.51378101 1.19433078 -54.09130859 5.8137207 C-62.12605423 9.89957147 -67.55947282 15.12753803 -70.94287109 23.6027832 C-72.90176234 30.15853923 -72.26595777 36.52299447 -69.65380859 42.8137207 C-66.01612682 49.46510234 -59.13596841 52.54098892 -52.15380859 54.6262207 C-50.0746977 54.92626416 -47.98528592 55.16035781 -45.89208984 55.3371582 C-44.69994873 55.44519775 -43.50780762 55.5532373 -42.27954102 55.66455078 C-40.39199097 55.83120239 -40.39199097 55.83120239 -38.46630859 56.0012207 C-15.36201348 58.24322811 11.5556996 61.65605441 28.35009766 79.6184082 C39.08037895 94.01883793 38.61348259 114.71804587 36.41650391 131.7199707 C33.24344773 147.54607807 24.03331213 160.59937382 11.15869141 170.09887695 C-3.60592629 179.8505079 -21.88754721 182.97037493 -39.31933594 180.29370117 C-43.31137823 179.46653851 -47.21792647 178.35449772 -51.12841797 177.20825195 C-67.49949666 172.096106 -67.49949666 172.096106 -84.09130859 173.8137207 C-87.30157956 175.3773611 -87.30157956 175.3773611 -88.71630859 178.3137207 C-89.19068359 179.0768457 -89.66505859 179.8399707 -90.15380859 180.6262207 C-92.13380859 180.6262207 -94.11380859 180.6262207 -96.15380859 180.6262207 C-96.15380859 158.1862207 -96.15380859 135.7462207 -96.15380859 112.6262207 C-93.84380859 112.6262207 -91.53380859 112.6262207 -89.15380859 112.6262207 C-88.67137695 113.58492065 -88.67137695 113.58492065 -88.17919922 114.56298828 C-79.89566907 131.36645311 -79.89566907 131.36645311 -69.15380859 146.6262207 C-68.44869141 147.49118164 -67.74357422 148.35614258 -67.01708984 149.24731445 C-55.94009825 162.2574634 -41.72193438 169.8998032 -24.74755859 171.91137695 C-14.57012694 172.33543661 -4.03874052 169.07752864 3.84619141 162.6262207 C10.23996804 155.44842918 13.56933358 146.64984398 13.18212891 137.04418945 C12.48510523 132.02723994 10.79890527 128.40638873 7.03369141 124.97387695 C-6.78382345 114.99173846 -24.85695962 112.4459082 -41.40380859 110.6887207 C-60.04891657 108.54170827 -76.37927888 101.46641986 -88.52880859 86.8137207 C-96.75177162 75.21305331 -97.64469006 59.12291491 -95.86962891 45.43481445 C-92.69191471 27.20342469 -83.17220398 13.35834719 -68.29833984 2.63793945 C-47.23276517 -10.83879466 -22.566391 -7.40533798 0 0 Z " fill="#1E201E" transform="translate(1956.15380859375,117.373779296875)"/>
<path d="M0 0 C0 57.42 0 114.84 0 174 C7.92 174 15.84 174 24 174 C24 176.31 24 178.62 24 181 C-10.32 181 -44.64 181 -80 181 C-80 178.69 -80 176.38 -80 174 C-72.08 174 -64.16 174 -56 174 C-56 120.87 -56 67.74 -56 13 C-63.92 13 -71.84 13 -80 13 C-80 10.69 -80 8.38 -80 6 C-79.39295227 5.99413376 -78.78590454 5.98826752 -78.16046143 5.98222351 C-71.73397383 5.91735 -65.30794462 5.83271503 -58.88183594 5.73754883 C-56.49648149 5.70467725 -54.11105629 5.67653345 -51.72558594 5.65356445 C-34.44067109 5.48275053 -16.59626189 0 0 0 Z " fill="#1E211E" transform="translate(1815,111)"/>
<path d="M0 0 C8.50085518 7.06931823 14.11603142 15.11106095 15.6875 26.25 C15.6875 29.55 15.6875 32.85 15.6875 36.25 C-1.8025 36.25 -19.2925 36.25 -37.3125 36.25 C-37.23 40.478125 -37.1475 44.70625 -37.0625 49.0625 C-37.04670898 50.3719458 -37.03091797 51.6813916 -37.01464844 53.03051758 C-36.7706725 61.54848805 -35.92347588 70.24864835 -30 76.8125 C-23.40613933 80.33944873 -17.52349507 80.95111011 -10.3125 79.25 C-7.58605353 78.11076245 -5.02725275 76.83406893 -2.44140625 75.40625 C-0.3125 74.25 -0.3125 74.25 2.6875 73.25 C3.75164272 71.54355225 3.75164272 71.54355225 4.6875 69.25 C7.6875 63.25 10.6875 57.25 13.6875 51.25 C15.0075 51.25 16.3275 51.25 17.6875 51.25 C15.18086598 64.0470263 10.49714752 73.55168195 -0.3125 81.25 C-11.59854942 87.48988309 -24.89669257 88.1287785 -37.25 84.6875 C-50.0543948 80.12134425 -59.38201273 71.01690579 -65.3046875 58.90234375 C-69.76905397 47.15310021 -70.18828403 33.71032608 -65.5625 21.953125 C-59.73996315 9.36188906 -51.39609411 0.42258372 -38.3125 -4.75 C-25.64852503 -9.18239124 -11.06519877 -7.77324904 0 0 Z M-35.3125 1.25 C-37.80710167 7.64730602 -37.54144804 13.89822147 -37.4375 20.6875 C-37.39625 24.503125 -37.355 28.31875 -37.3125 32.25 C-29.3925 32.25 -21.4725 32.25 -13.3125 32.25 C-13.250625 28.99125 -13.18875 25.7325 -13.125 22.375 C-13.09768799 21.36969238 -13.07037598 20.36438477 -13.04223633 19.32861328 C-12.98211397 12.68670861 -13.25239874 4.80337283 -17.79223633 -0.46826172 C-21.03242073 -3.20006967 -23.96309793 -3.08921868 -28.0546875 -3.0234375 C-31.54452496 -2.60079283 -33.06441361 -1.40682937 -35.3125 1.25 Z " fill="#1E201E" transform="translate(2461.3125,211.75)"/>
<path d="M0 0 C3.63156461 1.43263054 3.63156461 1.43263054 7.38891602 0.87670898 C9.20355605 -0.43153917 9.20355605 -0.43153917 11.07641602 -2.39672852 C12.39641602 -2.39672852 13.71641602 -2.39672852 15.07641602 -2.39672852 C15.07641602 7.50327148 15.07641602 17.40327148 15.07641602 27.60327148 C13.42641602 27.27327148 11.77641602 26.94327148 10.07641602 26.60327148 C8.77563477 24.19702148 8.77563477 24.19702148 7.76391602 21.10327148 C5.17849226 14.26861815 1.44045936 7.75009926 -5.34545898 4.41186523 C-13.14592814 1.96535445 -20.55215759 1.91755828 -27.92358398 5.60327148 C-31.73433649 8.24148476 -32.82525658 11.24236186 -33.73217773 15.64624023 C-34.01705695 18.55898489 -33.49449733 20.14445059 -31.92358398 22.60327148 C-26.43958326 28.41963589 -18.91607667 28.52588002 -11.41918945 29.24682617 C9.53532743 31.29264306 9.53532743 31.29264306 16.07641602 38.60327148 C21.75383361 48.30354498 23.84146267 57.39474125 21.42797852 68.61889648 C18.55493696 77.40991253 13.30064682 84.04197856 5.23266602 88.63452148 C-5.7521324 93.56972077 -16.22891142 91.34195862 -27.12280273 87.47045898 C-31.03748141 86.25838274 -33.85623012 86.09485225 -37.92358398 86.60327148 C-40.26620007 87.98253921 -40.26620007 87.98253921 -41.92358398 89.60327148 C-42.58358398 89.60327148 -43.24358398 89.60327148 -43.92358398 89.60327148 C-43.92358398 78.38327148 -43.92358398 67.16327148 -43.92358398 55.60327148 C-42.60358398 55.60327148 -41.28358398 55.60327148 -39.92358398 55.60327148 C-39.30483398 56.96258789 -39.30483398 56.96258789 -38.67358398 58.34936523 C-33.36583788 69.69168957 -27.85235859 78.20350181 -16.01733398 83.56811523 C-9.85825136 85.62891939 -3.83913031 85.90504073 2.07641602 82.97827148 C5.45539688 80.30324497 6.74092228 78.68831115 8.07641602 74.60327148 C8.4661493 70.72799901 8.31936093 67.33210623 7.07641602 63.60327148 C4.81883356 62.4470727 4.81883356 62.4470727 2.07641602 61.60327148 C0.72290039 61.14307617 0.72290039 61.14307617 -0.65795898 60.67358398 C-6.20366717 58.93516251 -11.72602107 57.38881173 -17.40185547 56.15039062 C-27.16908574 54.00783873 -36.46781426 51.76596771 -42.80639648 43.40405273 C-47.08886323 36.5011955 -46.79123407 27.6706396 -45.45874023 19.88842773 C-43.0640144 10.69211373 -38.12444076 4.70740133 -30.06811523 -0.20922852 C-20.14423911 -5.70441675 -10.09648761 -4.05064061 0 0 Z " fill="#1E201E" transform="translate(2533.923583984375,208.396728515625)"/>
<path d="M0 0 C5.48185807 5.09696165 9.65629036 11.83654138 10.1640625 19.43359375 C10.32291366 31.58570772 8.87357791 38.29840087 0.37890625 47.22265625 C-7.89459451 54.65410443 -17.45649017 55.03797336 -28.02783203 54.57373047 C-32.27586422 54.19523379 -35.52010353 52.71189447 -39.0390625 50.39453125 C-39.75578125 49.935625 -40.4725 49.47671875 -41.2109375 49.00390625 C-47.50163534 44.64174351 -50.95795524 39.8068154 -53.0390625 32.39453125 C-53.84651646 22.86237993 -53.97790006 13.67776247 -48.08203125 5.76953125 C-35.5010074 -8.97620028 -15.82830183 -12.46251351 0 0 Z " fill="#1E201E" transform="translate(1809.0390625,15.60546875)"/>
<path d="M0 0 C3.78957318 3.72832755 5.33990044 6.74643718 5.55859375 12.08984375 C5.11361599 18.39805784 2.89497778 21.63371058 -1.75390625 25.83984375 C-6.32735174 28.04187306 -10.13844101 28.26949531 -15.12890625 27.46484375 C-18.50390625 25.77734375 -18.50390625 25.77734375 -21.12890625 23.46484375 C-21.91265625 22.80484375 -22.69640625 22.14484375 -23.50390625 21.46484375 C-26.15013 16.5795076 -26.16411991 11.87173672 -25.12890625 6.46484375 C-22.62091309 1.76604481 -19.51608896 -0.86725346 -14.75390625 -3.16015625 C-9.10768716 -3.74424788 -4.70490916 -3.39271431 0 0 Z " fill="#1E201E" transform="translate(2372.12890625,267.53515625)"/>
</svg>
