<?xml version="1.0" encoding="utf-8"?>
<!-- Generator: Adobe Illustrator 19.2.1, SVG Export Plug-In . SVG Version: 6.00 Build 0)  -->
<svg version="1.1" id="layer" xmlns="http://www.w3.org/2000/svg" xmlns:xlink="http://www.w3.org/1999/xlink" x="0px" y="0px"
	 xml:space="preserve">
<style type="text/css">
	.st1{fill:#FFFFFF;}
</style>
<path class="st1" d="M291.1,345.1c-3.3,1.9-5.7,2.8-8.6,2.8c-5.2,0-9-3.8-9-10.3c0-8.1,4.4-12.5,17.6-13.4
	C291.1,324.1,291.1,345.1,291.1,345.1z M298.4,354.6H317v-2.1l-7.5-3.5l0-43.4c0-13.3-7.6-20.2-20.3-20.2c-13.5,0-32.5,6.6-32.5,19
	c0,5.2,3.4,9.7,9.3,9.7c5.3,0,9-4.6,9-9.4c0-3.7-2-8.3-6-11.5c2.3-0.4,4.7-0.6,7-0.6c11.9,0,15.2,5.9,15.2,14.3v13.6
	c-21.9,0.1-36.8,7.4-36.8,21c0,9.1,6.6,15.5,17.3,15.5c8,0,14.3-3.8,19.5-9.3l0.7,0.3C291.9,351.7,294.8,354.6,298.4,354.6z
	 M512.9,253.6h20.3L518.3,277h-11.5C506.7,277,512.9,253.6,512.9,253.6z M451.7,265.3c0-6.5,5.1-11.7,11.4-11.7
	c6.3,0,11.4,5.2,11.4,11.7c0,6.5-5.1,11.7-11.4,11.7C456.8,277,451.7,271.8,451.7,265.3z M613.2,305.8c0-10.5-4.7-20.4-17.6-20.4
	c-7.7,0-16,4-24.5,12.2l-0.6-0.3l0-9.7h-25.3v2l8.2,4.1v55.3l-7.6,3.5v2.1h32v-2.1l-6.1-3.5v-48.8c4.9-2.1,8-2.8,13-2.8
	c8.2,0,10.2,6,10.2,14.3v37.3l-7.2,3.5v2.1h33v-2.1l-7.6-3.5L613.2,305.8L613.2,305.8z M454.8,293.8v55.2l-8,3.5v2.1h33.9v-2.1
	l-7.6-3.5v-61.4h-26.6v2.1L454.8,293.8L454.8,293.8z M234.4,323c0,20.8-6.7,28.5-14,28.5c-6.3,0-10-2.6-13.5-8.1v-46.2
	c3.6-0.9,6.7-1.3,9.7-1.3C228.1,295.9,234.4,304.1,234.4,323z M188.6,383.7l-7.5,3.5v1.9h34.8v-1.9l-9-3.5v-28.3
	c3,0.6,6,0.9,8.9,0.9c24.2,0,38.2-17.9,38.2-37.8c0-20.4-11.4-33.8-25.3-33.8c-8.4,0-16.9,5-22.2,10.2l-0.6-0.3l0-6.9h-25.5v2.1
	l8.1,4C188.6,293.7,188.6,383.7,188.6,383.7z M528,320.3c0,18.4-4.4,31-14.7,31c-10.3,0-14.7-12.5-14.7-31c0-18.4,4.4-31,14.7-31
	C523.5,289.4,528,301.9,528,320.3z M547.6,320.3c0-18.9-10.4-35.7-33.5-35.7c-22.9,0-35.2,18-35.2,35.7c0,19,10.4,35.9,33.5,35.9
	C535.4,356.2,547.6,338.1,547.6,320.3L547.6,320.3z M447.2,333.8c0-12.8-10-17.4-19.3-21.2c-8.2-3.4-15.9-6.3-15.9-13.9
	c0-4.4,3.1-9,8.7-9c6.9,0,10.6,4.6,19.2,16.5l2.9-0.6l-0.4-18.3c-4-1.5-12.3-2.7-17.9-2.7c-15.5,0-26.6,9.6-26.6,21.2
	c0,13,10,17.6,19.3,21.5c8.2,3.4,15.7,6.3,15.7,13.7c0,5.9-3.4,10-9.2,10c-7.4,0-12.7-4.9-23.2-19.5l-2.9,0.3l0.4,20.2
	c6.6,2.7,13.9,4,22.5,4C434.3,356.2,447.2,347.5,447.2,333.8z M387.4,305.8c0-10.5-4.7-20.4-17.6-20.4c-7.7,0-16,4-24.5,12.2
	l-0.6-0.3l0-9.7h-25.3v2l8.2,4.1v55.3l-7.5,3.5v2.1h32v-2.1l-6.1-3.5v-48.8c4.9-2.1,8-2.8,13-2.8c8.2,0,10.2,6,10.2,14.3v37.3
	l-6.1,3.5v2.1h32v-2.1l-7.5-3.5L387.4,305.8L387.4,305.8z M147.2,312.2L136,292.7l6.4-3v-2.1h-34.7v2.1l6.8,3l21,32l-19.5,23.9
	l-7.6,4v2.1h23.5v-2.1l-5.8-3.2L139,330l11.6,19.5l-6.8,3.1v2.1h35.1v-2.1l-6.8-3.1l-21.7-32.2l18.8-23.6l8.1-4v-2.1h-24v2.1
	l5.5,3.4C158.7,293.1,147.2,312.2,147.2,312.2z M102.5,253.6H21.1v2.7l12.4,3.8v88.1L21.1,352v2.7h84.6l2.9-32.9l-2.9-0.6
	l-12.5,16.5c-5.1,6.7-10.2,10-18.8,10.5l-18.9,1v-41.6h5.2c8.8,0,12.2,3.2,15.9,13l1.9,4.9h3.2v-42.7h-3.2l-1.9,5.2
	c-3.5,9.8-7.1,13-15.9,13h-5.2V259l14,0.6c10.8,0.5,14.6,3.3,20.2,11.4l12,17.5l2.9-0.8L102.5,253.6z"/>
</svg>
