<svg height="67" viewBox="0 0 348 67" width="348" xmlns="http://www.w3.org/2000/svg"><g fill="none"><path d="m105.891 63v-3.185c.513.028.889.042 1.127.042 1.48 0 2.588-.31 3.325-.928s1.106-1.531 1.106-2.74c0-1.255-.37-2.18-1.11-2.776-.74-.594-1.858-.892-3.356-.892-.97 0-1.958.098-2.961.294v10.185zm1.148-4.571c-.448 0-.83-.023-1.148-.07v-4.319c.401-.065.819-.098 1.253-.098.85 0 1.476.18 1.88.542.403.362.605.935.605 1.719 0 .775-.207 1.34-.62 1.694-.412.355-1.07.532-1.97.532zm9.173 4.711c.714 0 1.437-.091 2.17-.273v-1.393c-.719.177-1.358.266-1.918.266-.57 0-1.024-.065-1.365-.196-.34-.13-.593-.342-.756-.633-.163-.292-.257-.685-.28-1.18h4.725v-.497c0-1.32-.27-2.316-.812-2.986-.541-.67-1.332-1.004-2.373-1.004-.714 0-1.323.148-1.827.444-.504.297-.889.739-1.155 1.327s-.399 1.309-.399 2.163c0 .929.145 1.684.434 2.265.29.58.727 1.009 1.313 1.284.585.275 1.333.413 2.243.413zm.861-4.508h-3.017c.014-.789.15-1.351.406-1.687.257-.336.632-.504 1.127-.504.485 0 .85.168 1.096.504.245.336.374.898.388 1.687zm4.714 4.368v-5.201c.2-.275.477-.488.83-.637.352-.15.71-.224 1.074-.224.294 0 .532.016.714.049v-1.666c-.205-.033-.408-.049-.609-.049-.439 0-.841.091-1.208.273-.366.182-.661.453-.885.812h-.098l-.14-.994h-1.512v7.637zm4.42-8.946c.387 0 .678-.085.872-.256.193-.17.29-.416.29-.738s-.097-.57-.29-.742c-.194-.173-.485-.259-.872-.259s-.678.086-.871.259c-.194.173-.291.42-.291.742s.097.568.29.738c.194.17.485.256.872.256zm.917 8.946v-7.637h-1.841v7.637zm4.812.14c.733 0 1.365-.145 1.897-.434.532-.29.941-.728 1.228-1.316s.431-1.32.431-2.198c0-1.316-.31-2.303-.927-2.961-.619-.658-1.495-.987-2.629-.987s-2.01.329-2.629.987c-.618.658-.927 1.647-.927 2.968 0 1.311.314 2.296.941 2.954.628.658 1.5.987 2.615.987zm0-1.414c-.373 0-.685-.08-.935-.242-.25-.16-.44-.428-.573-.801s-.2-.875-.2-1.505c0-.915.143-1.563.43-1.946.288-.383.713-.574 1.278-.574s.99.192 1.278.578c.286.385.43 1.041.43 1.97 0 .915-.144 1.563-.43 1.946-.287.383-.713.574-1.278.574zm7.633 1.407c.439 0 .833-.084 1.183-.252s.64-.397.868-.686h.098l.112.805h1.547v-11.312h-1.834v3.626c-.369-.051-.71-.077-1.022-.077-1.32 0-2.325.348-3.013 1.043-.689.695-1.033 1.715-1.033 3.059 0 .873.137 1.593.41 2.16.273.566.641.98 1.106 1.242.464.261.99.392 1.578.392zm.504-1.512c-.56 0-.992-.183-1.295-.55-.303-.366-.455-.992-.455-1.879 0-.891.18-1.536.542-1.935.362-.4.914-.599 1.656-.599.369 0 .71.035 1.022.105v4.179c-.173.224-.39.393-.651.508-.261.114-.534.171-.819.171zm5.848-7.567c.387 0 .678-.085.871-.256.194-.17.291-.416.291-.738s-.097-.57-.29-.742c-.194-.173-.485-.259-.872-.259s-.678.086-.871.259c-.194.173-.291.42-.291.742s.097.568.29.738c.194.17.485.256.872.256zm.917 8.946v-7.637h-1.841v7.637zm3.72.14c.69 0 1.28-.096 1.768-.287.487-.191.857-.464 1.109-.819s.378-.777.378-1.267c0-.625-.164-1.107-.493-1.446-.33-.338-.844-.577-1.544-.717l-1.162-.217c-.308-.065-.526-.165-.655-.297-.128-.134-.192-.312-.192-.536 0-.635.576-.952 1.729-.952.667 0 1.302.082 1.904.245v-1.365c-.597-.159-1.248-.238-1.953-.238-.751 0-1.381.098-1.89.294s-.888.47-1.137.823c-.25.352-.375.766-.375 1.242 0 .593.161 1.065.483 1.417.322.353.835.599 1.54.739l1.162.217c.317.065.541.163.672.294.13.13.196.32.196.567 0 .308-.125.542-.375.703-.25.162-.645.242-1.186.242-.798 0-1.568-.112-2.31-.336v1.372c.686.215 1.463.322 2.331.322zm6.198-.14v-5.376c.177-.261.399-.459.665-.592.266-.132.539-.199.819-.199.364 0 .642.107.833.322s.287.576.287 1.085v4.76h1.799v-4.907c0-.229-.01-.42-.028-.574.182-.233.399-.406.651-.518s.509-.168.77-.168c.364 0 .648.108.85.325.204.218.305.578.305 1.082v4.76h1.827v-4.858c0-1.003-.22-1.737-.658-2.202-.439-.464-1.038-.696-1.799-.696-.42 0-.83.083-1.228.248-.4.166-.76.424-1.082.774-.2-.35-.467-.608-.798-.773-.331-.166-.712-.249-1.141-.249-.434 0-.834.078-1.2.234-.367.157-.688.389-.963.697h-.098l-.126-.812h-1.519v7.637zm13.527.14c.733 0 1.365-.145 1.897-.434.532-.29.941-.728 1.228-1.316.288-.588.431-1.32.431-2.198 0-1.316-.31-2.303-.928-2.961s-1.494-.987-2.628-.987-2.01.329-2.628.987c-.619.658-.928 1.647-.928 2.968 0 1.311.314 2.296.941 2.954.628.658 1.5.987 2.615.987zm0-1.414c-.373 0-.685-.08-.934-.242-.25-.16-.441-.428-.575-.801-.132-.373-.199-.875-.199-1.505 0-.915.144-1.563.43-1.946.287-.383.713-.574 1.278-.574s.99.192 1.278.578c.286.385.43 1.041.43 1.97 0 .915-.144 1.563-.43 1.946-.287.383-.713.574-1.278.574zm10.121 1.407c.439 0 .839-.078 1.2-.235.362-.156.657-.386.886-.689h.098l.126.791h1.519v-4.704c0-.76-.118-1.363-.353-1.806-.236-.443-.594-.762-1.075-.956-.48-.193-1.108-.29-1.883-.29-.383 0-.787.028-1.214.084-.428.056-.814.138-1.159.245v1.407c.336-.107.686-.188 1.05-.241.364-.054.702-.081 1.015-.081.443 0 .797.047 1.06.14.264.093.458.25.582.472.123.222.185.527.185.914v.301l-1.428.133c-1.05.084-1.818.32-2.303.707s-.728.936-.728 1.645c0 .439.097.82.29 1.145.194.324.473.575.837.752s.796.266 1.295.266zm.567-1.302c-.383 0-.673-.089-.871-.266-.199-.177-.298-.434-.298-.77 0-.331.11-.59.333-.773.221-.185.572-.3 1.053-.347l1.253-.112v1.624c-.2.224-.428.387-.683.49-.254.103-.516.154-.787.154zm9.939 4.249v-3.01c.41.047.751.07 1.022.07 1.325 0 2.331-.348 3.017-1.043s1.029-1.715 1.029-3.059c0-.877-.137-1.598-.41-2.163s-.64-.978-1.102-1.239-.987-.392-1.575-.392c-.439 0-.834.084-1.186.252-.353.168-.643.397-.872.686h-.091l-.119-.819h-1.547v10.717zm1.022-4.361c-.355 0-.695-.033-1.022-.098v-4.186c.173-.224.39-.393.651-.508.261-.114.534-.171.819-.171.56 0 .992.182 1.295.546s.455.992.455 1.883-.18 1.536-.542 1.935c-.362.4-.914.599-1.656.599zm9.019 1.421c.714 0 1.437-.091 2.17-.273v-1.393c-.719.177-1.358.266-1.918.266-.57 0-1.024-.065-1.365-.196-.34-.13-.593-.342-.756-.633-.163-.292-.257-.685-.28-1.18h4.725v-.497c0-1.32-.27-2.316-.812-2.986-.541-.67-1.332-1.004-2.373-1.004-.714 0-1.323.148-1.827.444-.504.297-.889.739-1.155 1.327s-.399 1.309-.399 2.163c0 .929.145 1.684.434 2.265.29.58.727 1.009 1.313 1.284.585.275 1.333.413 2.243.413zm.861-4.508h-3.017c.014-.789.15-1.351.406-1.687.257-.336.632-.504 1.127-.504.485 0 .85.168 1.095.504s.375.898.389 1.687zm4.98 4.508c.69 0 1.28-.096 1.768-.287.487-.191.857-.464 1.109-.819s.378-.777.378-1.267c0-.625-.165-1.107-.493-1.446-.33-.338-.844-.577-1.544-.717l-1.162-.217c-.308-.065-.526-.165-.655-.297-.128-.134-.192-.312-.192-.536 0-.635.576-.952 1.729-.952.667 0 1.302.082 1.904.245v-1.365c-.597-.159-1.248-.238-1.953-.238-.751 0-1.381.098-1.89.294s-.888.47-1.137.823c-.25.352-.375.766-.375 1.242 0 .593.161 1.065.483 1.417.322.353.835.599 1.54.739l1.162.217c.317.065.541.163.672.294.13.13.196.32.196.567 0 .308-.125.542-.374.703-.25.162-.646.242-1.187.242-.798 0-1.568-.112-2.31-.336v1.372c.686.215 1.463.322 2.331.322zm6.387-.007c.439 0 .839-.078 1.2-.235.362-.156.657-.386.886-.689h.098l.126.791h1.519v-4.704c0-.76-.118-1.363-.353-1.806-.236-.443-.594-.762-1.075-.956-.48-.193-1.108-.29-1.883-.29-.383 0-.787.028-1.215.084-.427.056-.813.138-1.158.245v1.407c.336-.107.686-.188 1.05-.241.364-.054.702-.081 1.015-.081.443 0 .797.047 1.06.14.264.093.458.25.581.472.124.222.186.527.186.914v.301l-1.428.133c-1.05.084-1.818.32-2.303.707s-.728.936-.728 1.645c0 .439.097.82.29 1.145.194.324.473.575.837.752s.796.266 1.295.266zm.567-1.302c-.383 0-.673-.089-.871-.266-.199-.177-.298-.434-.298-.77 0-.331.11-.59.333-.773.221-.185.572-.3 1.053-.347l1.253-.112v1.624c-.2.224-.428.387-.683.49-.254.103-.516.154-.787.154zm6.653 1.169v-5.201c.2-.275.477-.488.83-.637.352-.15.71-.224 1.074-.224.294 0 .532.016.714.049v-1.666c-.205-.033-.408-.049-.609-.049-.439 0-.841.091-1.207.273-.367.182-.662.453-.886.812h-.098l-.14-.994h-1.512v7.637zm9.421.133c.439 0 .833-.084 1.183-.252s.64-.397.868-.686h.098l.112.805h1.547v-11.312h-1.834v3.626c-.369-.051-.71-.077-1.022-.077-1.32 0-2.325.348-3.013 1.043-.689.695-1.033 1.715-1.033 3.059 0 .873.137 1.593.41 2.16.273.566.641.98 1.106 1.242.464.261.99.392 1.578.392zm.504-1.512c-.56 0-.992-.183-1.295-.55-.303-.366-.455-.992-.455-1.879 0-.891.18-1.536.542-1.935.362-.4.914-.599 1.656-.599.369 0 .71.035 1.022.105v4.179c-.173.224-.39.393-.651.508-.261.114-.534.171-.819.171zm8.55 1.519c.714 0 1.437-.091 2.17-.273v-1.393c-.719.177-1.358.266-1.918.266-.57 0-1.024-.065-1.365-.196-.34-.13-.593-.342-.756-.633-.163-.292-.257-.685-.28-1.18h4.725v-.497c0-1.32-.27-2.316-.812-2.986-.541-.67-1.332-1.004-2.373-1.004-.714 0-1.323.148-1.827.444-.504.297-.889.739-1.155 1.327s-.399 1.309-.399 2.163c0 .929.145 1.684.434 2.265.29.58.727 1.009 1.313 1.284.585.275 1.333.413 2.243.413zm.861-4.508h-3.017c.014-.789.15-1.351.406-1.687.257-.336.632-.504 1.127-.504.485 0 .85.168 1.095.504s.375.898.389 1.687zm9.393 4.508c.439 0 .88-.051 1.323-.154v-1.47c-.34.065-.623.098-.847.098-.322 0-.581-.048-.777-.143-.196-.096-.342-.254-.438-.473-.095-.22-.143-.516-.143-.889v-3.283h2.135v-1.463h-2.135v-2.723h-1.512l-.322 2.723h-1.316v1.463h1.316v3.577c0 1.825.905 2.737 2.716 2.737zm5.344 0c.733 0 1.365-.145 1.897-.434.532-.29.941-.728 1.228-1.316.288-.588.431-1.32.431-2.198 0-1.316-.31-2.303-.928-2.961s-1.494-.987-2.628-.987-2.01.329-2.629.987c-.618.658-.927 1.647-.927 2.968 0 1.311.314 2.296.941 2.954.628.658 1.5.987 2.615.987zm0-1.414c-.373 0-.685-.08-.935-.242-.25-.16-.44-.428-.573-.801s-.2-.875-.2-1.505c0-.915.143-1.563.43-1.946.288-.383.713-.574 1.278-.574s.99.192 1.278.578c.286.385.43 1.041.43 1.97 0 .915-.144 1.563-.43 1.946-.287.383-.713.574-1.278.574zm7.633 1.407c.439 0 .833-.084 1.183-.252s.64-.397.868-.686h.098l.112.805h1.547v-11.312h-1.834v3.626c-.369-.051-.71-.077-1.022-.077-1.32 0-2.325.348-3.014 1.043-.688.695-1.032 1.715-1.032 3.059 0 .873.136 1.593.41 2.16.272.566.641.98 1.106 1.242.464.261.99.392 1.578.392zm.504-1.512c-.56 0-.992-.183-1.295-.55-.303-.366-.455-.992-.455-1.879 0-.891.18-1.536.543-1.935.361-.4.913-.599 1.655-.599.369 0 .71.035 1.022.105v4.179c-.173.224-.39.393-.651.508-.261.114-.534.171-.819.171zm8.116 1.519c.733 0 1.365-.145 1.897-.434.532-.29.941-.728 1.228-1.316s.431-1.32.431-2.198c0-1.316-.31-2.303-.928-2.961s-1.494-.987-2.628-.987-2.01.329-2.629.987c-.618.658-.927 1.647-.927 2.968 0 1.311.314 2.296.942 2.954.627.658 1.499.987 2.614.987zm0-1.414c-.373 0-.685-.08-.935-.242-.25-.16-.44-.428-.574-.801-.132-.373-.199-.875-.199-1.505 0-.915.144-1.563.43-1.946.288-.383.713-.574 1.278-.574s.99.192 1.277.578c.287.385.431 1.041.431 1.97 0 .915-.144 1.563-.43 1.946-.287.383-.713.574-1.278.574z" fill="#4a4a4a"/><path d="m279.956 48c-.234-.117-.468-.235-.702-.235-3.046-.938-4.803-3.987-4.1-7.036.703-2.932 3.514-5.042 6.56-4.69 3.162.351 5.504 3.048 5.27 6.215-.117 2.462-1.757 4.69-4.1 5.394-.234.117-.585.235-.82.352z" fill="#000"/><path d="m43.442 17.267c-2.92-8.634-10.744-14.234-19.269-14.934l-.933 10.967c4.32.35 8.174 3.15 9.693 7.467 1.985 5.833-1.168 12.133-6.89 14.116-5.84 1.984-12.145-1.166-14.13-6.883-1.986-5.833 1.167-12.133 6.89-14.117l3.152-6.65-6.656-3.85c-11.679 3.967-17.868 16.45-13.898 28.117 3.97 11.55 16.466 17.733 28.144 13.883 11.561-3.966 17.75-16.566 13.897-28.116z" fill="#004a7f"/><g fill="#000" transform="translate(49.047)"><path d="m16.816 11.083c-10.043 0-16.7 7.117-16.7 17.15 0 10.967 6.073 17.734 18.919 17.734 5.722 0 9.81-1.284 12.028-2.45v-7.584l-.467-.233c-2.92 1.4-5.956 2.45-10.627 2.45-5.839 0-8.875-2.1-9.692-7.117h21.37c1.401-14-5.021-19.95-14.83-19.95zm-6.306 13.417c.7-4.433 2.92-6.417 6.423-6.417s5.138 2.1 5.372 6.417zm37.603 13.533c-1.402 0-2.102-.816-2.102-2.45v-33.25l-10.394.117v35c0 6.3 3.62 8.283 9.226 8.283 2.336 0 4.32-.466 5.372-.933v-6.883l-.35-.234c-.584.117-.935.35-1.752.35zm21.137-35.583h-15.298v42.7h15.298c13.663 0 24.29-5.717 24.29-21.117 0-15.283-10.627-21.583-24.29-21.583zm-.584 34.183h-3.036v-25.55h3.036c7.707 0 12.962 3.617 12.962 12.95 0 9.567-5.255 12.6-12.962 12.6zm28.844-24.733h10.393v33.367h-10.393zm0-11.783h10.393v8.4h-10.393zm37.136 14.816c-2.102-2.333-4.905-3.85-8.992-3.85-8.175 0-14.247 5.95-14.247 17.734 0 11.433 5.605 17.15 13.896 17.15 4.555 0 7.591-1.75 9.927-4.784l.934 3.967h8.525v-33.25h-9.576zm-.35 21c-1.402 1.167-3.27 1.984-5.606 1.984-3.854 0-6.656-2.8-6.656-9.1 0-6.534 2.569-10.034 6.89-10.034 2.335 0 3.97.7 5.488 1.867v15.283h-.117zm25.457-18.316-.7-5.717h-9.11v33.367h10.394v-21.234c1.985-2.1 4.32-2.683 8.174-2.683 1.051 0 2.102.117 2.92.35l.35-.233v-9.8c-.7-.117-1.635-.234-2.686-.234-4.437-.116-7.59 3.034-9.342 6.184zm15.064-17.5h10.393v8.4h-10.393zm0 11.783h10.393v33.367h-10.393zm31.647-.817c-10.16 0-17.867 6.534-17.867 17.384s7.59 17.5 17.867 17.5c10.16 0 17.868-6.65 17.868-17.5s-7.708-17.384-17.868-17.384zm0 27.3c-4.32 0-7.24-3.266-7.24-9.916s2.92-9.917 7.24-9.917c4.321 0 7.24 3.267 7.24 9.917 0 6.766-2.802 9.916-7.24 9.916zm50.216-27.3c-10.044 0-16.7 7.117-16.7 17.15 0 10.967 6.072 17.734 18.918 17.734 5.722 0 9.81-1.284 12.028-2.45v-7.584l-.467-.233c-2.92 1.4-5.956 2.45-10.627 2.45-5.839 0-8.875-2.1-9.692-7.117h21.37c1.401-14-5.021-19.95-14.83-19.95zm-6.308 13.417c.7-4.433 2.92-6.417 6.423-6.417s5.138 2.1 5.372 6.417zm38.538-.117-2.92-.7c-2.218-.583-3.152-1.166-3.152-2.683s.934-2.567 4.087-2.567c3.854 0 7.24.934 9.576 2.217l.35-.233v-7.584c-2.57-1.05-5.839-1.866-10.277-1.866-8.174 0-13.079 4.316-13.079 10.85 0 5.833 3.62 8.866 8.875 10.15l2.92.7c2.92.7 3.854 1.166 3.854 2.8 0 1.75-1.518 2.8-4.788 2.8-3.97 0-7.708-1.284-10.394-3.384l-.35.234v7.816c2.686 1.634 5.956 2.8 11.678 2.8 8.408 0 13.663-4.2 13.663-11.55 0-5.95-3.27-8.166-10.043-9.8z"/><ellipse cx="231.671" cy="41.518" rx="5.955" ry="5.95" transform="matrix(.97323506 -.22981194 .22981194 .97323506 -3.340671 54.351988)"/></g></g></svg>