<?xml version="1.0" encoding="utf-8"?>
<!-- Generator: Adobe Illustrator 20.0.0, SVG Export Plug-In . SVG Version: 6.00 Build 0)  -->
<svg version="1.1" id="Layer_1" xmlns="http://www.w3.org/2000/svg" xmlns:xlink="http://www.w3.org/1999/xlink" x="0px" y="0px"
	 viewBox="0 0 1500 300" style="enable-background:new 0 0 1500 300;" xml:space="preserve">
<style type="text/css">
	.st0{fill:#B60E1F;}
	.st1{fill:#FFFFFF;}
</style>
<rect class="st0" width="1500" height="300"/>
<path class="st1" d="M1451,170.4v-1.7V167c-0.3-5-1.2-9.8-2.6-14.6c-7-24.7-22.2-41.7-46.8-49.7c-17.3-5.6-35-5.9-52.6-1.1
	c-23.6,6.4-39.7,21.2-48.3,44.2c-4.2,11.3-5.6,23.1-5.3,35.2c0.2,7.6,1.1,15.1,3.1,22.5c6.8,24.6,22,41.7,46.3,49.8
	c17,5.7,34.4,5.8,51.8,1.6c12.9-3.2,24.3-9.2,33.6-18.8c12.7-13,19-28.8,20.7-46.7v-1.7V186c0-0.8-0.4-1.8,0.5-2.4v-10.5
	C1450.6,172.2,1451,171.3,1451,170.4L1451,170.4z M1406.5,202.1c-0.9,2.9-2.2,5.6-3.7,8.2c-6,10-15,15.1-26.6,15.7
	c-6,0.3-11.8-0.2-17.4-2.6c-7.8-3.4-13-9.3-16.5-16.9c-3.4-7.6-4.8-15.6-5.2-23.8c-0.1-1.5,0-3.1,0-4.7c0-9.3,1-18.4,4.6-27.1
	c6.5-16.2,20.2-22.6,36.3-21c9.4,1,17.1,4.9,22.8,12.5c3.6,4.8,5.8,10.3,7.2,16.1C1411.2,173.2,1411.1,187.7,1406.5,202.1
	L1406.5,202.1z"/>
<path class="st1" d="M1451,170.4c0,0.8-0.4,1.8,0.5,2.4v-2.3C1451.3,170.5,1451.2,170.5,1451,170.4z M1451,185.7
	c0.2,0,0.3,0,0.5-0.1v-2.3C1450.6,184,1451,184.9,1451,185.7L1451,185.7z"/>
<path class="st1" d="M1451,185.7v1.7h0.5v-1.8C1451.3,185.7,1451.2,185.7,1451,185.7z M1451,187.5v1.7h0.5v-1.8
	C1451.4,187.4,1451.2,187.5,1451,187.5z M1451,168.7v1.7c0.2,0,0.3,0,0.5,0.1v-1.8C1451.5,168.7,1451,168.7,1451,168.7z M1451,167
	v1.7h0.5v-1.8C1451.3,167,1451.2,167,1451,167z M455.6,85.3c-5.9-16-16.8-27.3-32.5-34c-10-4.3-20.4-6.3-31.2-6.3
	c-31.7-0.1-63.4,0-95.1,0c-3.2,0-2.8-0.2-2.8,2.8v202c0,0.7,0.1,1.4,0,2c-0.1,1.3,0.5,1.7,1.7,1.6h41.5c3.2,0,2.8,0.2,2.8-2.8v-1.5
	v-66.8c0-0.7,0.1-1.4,0-2c-0.2-1.4,0.5-1.7,1.7-1.6c0.6,0.1,1.2,0,1.8,0h47.3c8.4,0,16.7-1.1,24.7-3.6c21.1-6.4,35.3-19.9,41.7-41.1
	C461.9,117.7,461.5,101.4,455.6,85.3z M414.7,121.7c-2.2,9.4-8.2,15.4-17.3,18.5c-5.7,1.9-11.6,2.7-17.5,2.7
	c-12.5,0.2-25.1,0.1-37.6,0.2c-2.5,0-2.3,0.2-2.3-2.4v-28.9V83.2c0-2.8-0.3-2.6,2.4-2.6c12.4,0,24.9,0,37.3,0.1
	c5.3,0.1,10.7,0.7,15.8,2.2c11,3.1,17.8,10.1,19.6,21.5C416.1,110.2,416,116,414.7,121.7z M1078.9,45h-35.6c-3.8,0-3.3-0.5-3.3,3.2
	v69.5c0,0.9,0.3,1.9-0.4,2.9c-0.5-0.6-0.9-1.1-1.2-1.6c-4.9-7-11.5-12.1-19.3-15.6c-11.3-5.1-23.2-6-35.4-4.2
	c-12.9,1.9-24.1,7.4-33.3,16.6c-10.2,10.2-16.3,22.6-19.6,36.5c-2.8,11.4-3.5,23-2.4,34.7c1.2,13.1,4.5,25.6,10.8,37.2
	c7,12.8,16.9,22.7,30.6,28.4c13.2,5.5,27,6.3,40.9,3.3c12.7-2.7,22.9-9.3,30.1-20.3c0.2-0.3,0.3-0.8,0.8-0.7
	c0.5,0.3,0.4,0.8,0.4,1.3v14.6c0,3-0.1,2.6,2.7,2.6h33.6c3.3,0,3.3,0,3.3-3.2V125.3V47.7C1081.5,44.7,1081.8,45,1078.9,45L1078.9,45
	z M1037.6,203.3c-2.2,6.3-5.5,11.8-10.7,16.1c-6.3,5.2-13.8,7-21.8,6.7c-15.3-0.4-24.7-8.8-30.6-22.2c-3-6.7-4.4-13.9-4.8-21.2
	c-0.6-10.7,0.3-21.2,4.3-31.2c3.7-9.3,9.6-16.5,19.4-19.7c10.8-3.6,21.5-3.1,31.3,3.2c6.5,4.2,10.3,10.4,12.9,17.5
	c2.9,8.2,3.9,16.6,3.8,24.8C1041.5,186.5,1040.5,195,1037.6,203.3L1037.6,203.3z M150.4,101.9c-13-4.2-26.4-4.6-39.8-2
	c-24.8,4.8-43,18.7-53.4,41.7c-11,24.3-10.7,49.1-0.4,73.6c7.7,18.3,21.4,30.9,40.1,37.5c16.5,5.9,33.5,6.3,50.6,2.7
	c12.7-2.7,23.7-8.7,32.6-18.1c7.7-8.1,12.8-17.8,16.4-28.3c0.2-0.7,0.8-1.3,0.2-2.3h-2.8c-9.5,0-19.1,0.1-28.6-0.1
	c-3.1-0.1-4.9,0.5-6.4,3.7c-2.8,5.9-8.2,9.5-14,12.2c-9.3,4.3-18.9,4.6-28.8,2.4c-10.7-2.4-17.9-8.9-21.8-19.1
	c-2.1-5.6-3.1-11.4-3.3-17.7h105.1c0.7,0,1.4-0.1,2,0c1.4,0.2,1.8-0.4,1.8-1.8c0.7-17.1-1.8-33.5-9.4-49
	C182,120,168.9,107.8,150.4,101.9L150.4,101.9z M91.2,161.6c0.4-16.5,12.2-29.5,28.4-31.5c5.9-0.7,11.6-0.5,17.3,1.2
	c5.8,1.7,10.4,5.1,13.9,10c3.5,5,6.7,13.9,7.3,20.3C158.1,161.6,91.2,161.6,91.2,161.6z M594,135.7c-8-15.5-19.9-26.7-36.3-32.8
	c-13.9-5.1-28.3-5.9-42.8-3c-25.2,4.9-43.5,19.1-53.9,42.7c-9.9,22.6-9.9,45.8-1.5,68.8c7.7,21.1,22.6,35.2,44,42.2
	c13.9,4.5,28,5.1,42.3,3c22.1-3.2,38.5-14.6,49.1-34.3c2.6-4.9,4.8-9.9,6.4-15.3c-1.1-0.4-2.1-0.3-3-0.3h-31.8
	c-1.1,0-1.8,0.3-2.2,1.4c-2.1,5.4-6.2,9.1-10.9,12.1c-10.5,6.6-21.9,7.4-33.7,4.6c-9.6-2.3-16.4-8.1-20.4-17.1
	c-1.8-4.1-2.9-8.4-3.5-12.9c-0.2-2.2-0.9-4.3-0.3-6.7H604c0.5-5.5,0.3-10.7-0.1-15.8C603.1,159.4,600,147.1,594,135.7z M495.6,161.6
	c-0.5-1.6,0-3,0.3-4.4c2.4-13.6,12-25.5,28.5-27.2c5-0.5,9.9-0.4,14.7,0.7c7.1,1.6,12.6,5.4,16.5,11.5c3.8,5.9,5.6,12.5,6.9,19.4
	H495.6z M871.6,102.4c-17.3-5.4-34.9-5.6-52.3-0.8c-20.3,5.6-35.4,17.7-44.8,36.7c-6.2,12.5-8.5,25.9-8.6,39.8
	c0.1,1,0.2,1.9,0.2,2.9c0.1,9.7,1.6,19.2,4.9,28.3c7.2,20,20.4,34.5,40.3,42.3c19.2,7.5,38.9,8,58.6,2.3
	c22.9-6.5,38.7-21.1,46.8-43.4c7.9-21.7,7.8-43.8-0.1-65.4C908.8,123.6,893.5,109.2,871.6,102.4L871.6,102.4z M875.9,205.3
	c-5.6,13.2-15.5,20.2-29.9,20.8c-9,0.4-17.2-1.5-24.2-7.4c-5.2-4.4-8.4-10.1-10.6-16.5c-2.8-8.1-3.7-16.5-3.6-25
	c0.1-8.1,1-16.1,3.7-23.8c2.1-6,5.2-11.5,10-15.8c6.7-6,14.7-8,23.4-7.9c3.4,0,6.8,0.5,10.1,1.4c11,3.1,17.7,10.7,21.7,21.1
	c3.2,8.4,4.2,17.1,4.1,25.2C880.7,187.5,879.5,196.7,875.9,205.3z M1288.4,195.6h-33.3c-3.7,0-3.6,0-4.5,3.7
	c-1.9,8.5-5.6,15.9-12.9,21.2c-5.6,4.1-12.1,5.6-18.9,5.7c-10,0.1-18.4-3.6-24.6-11.6c-2.6-3.4-4.6-7.2-6.1-11.2
	c-2.8-7.5-4-15.2-4.1-23.1c-0.2-10.8,1.4-21.3,6.1-31.2c4.1-8.7,10.4-15.3,19.9-18c7.6-2.2,15.2-1.7,22.6,1.1
	c5.7,2.1,10,5.9,13,11.1c1.9,3.2,3,6.7,3.8,10.3c0.5,2.1,0.5,2.1,2.6,2.1h36.2c2.2,0,2.3-0.1,2.1-2.3c-0.6-6.1-2-12.1-4.4-17.7
	c-6.5-15.1-18-25.1-33-31.1c-16.1-6.5-32.8-7.7-49.8-4.7c-26.7,4.8-44.9,20.1-54.6,45.4c-4.6,12-6.2,24.6-5.9,37.4
	c0.2,7.3,1.1,14.5,3.1,21.6c6.5,22.7,20.4,39.2,42.5,47.8c19.3,7.5,39.2,7.5,58.9,1.2c15.1-4.8,26.8-14.2,34.9-28
	c5.3-9,8.2-18.8,9.6-29.3C1290.3,195.4,1289.3,195.6,1288.4,195.6L1288.4,195.6z M249.5,48.3v-2c0-0.9-0.3-1.2-1.2-1.2h-37
	c-3.2,0-3.2,0-3.2,3.3v202.4c0,3-0.3,2.7,2.6,2.7h35.6c3.8,0,3.2,0.4,3.2-3.2L249.5,48.3L249.5,48.3z M708.3,112.3v-10.2
	c0-2.4,0-2.3-2.2-2.9c-2.1-0.6-4.2-0.9-6.3-0.8c-21.6,0.6-37.5,10.5-47.7,29.5c-0.4,0.7-0.4,1.6-1.5,2.1v-16.5v-9.3
	c0-1.3-0.5-1.8-1.7-1.7h-34.5c-4.1,0-3.4-0.1-3.4,3.5v145.7c-0.2,1.4,0.3,1.9,1.8,1.9c12.6-0.1,25.3,0,37.9,0c1.4,0,1.8-0.4,1.8-1.8
	c-0.1-4-0.1-8,0-12c0.1-19.4-0.3-38.7,0.2-58.1c0.2-5.9,1-11.6,2.6-17.2c2.1-7.1,5.5-13.5,11.2-18.4c8-7,17.6-9,27.9-8.9
	c4.6,0.1,9.1,0.5,13.6,1.3c0.6-1,0.3-2,0.3-3L708.3,112.3L708.3,112.3z M1135,249.8v-72v-28v-44.3c0-2.8,0.6-3-3-3h-35.6
	c-3.4,0-3.1-0.2-3.1,3.2v144.1c0,3.6,0,3.6,3.5,3.6h34.7c0.6,0,1.2-0.1,1.7,0c1.5,0.2,1.9-0.5,1.8-1.8V249.8L1135,249.8z M757,250.8
	V105.2c0-3,0.2-2.8-2.9-2.8h-35.3c-3.9,0-3.3-0.2-3.3,3.2v146.5c0,0.9,0.3,1.3,1.2,1.2h39.2c1.1,0.1,1.4-0.5,1.3-1.4
	C756.9,251.6,757,251.2,757,250.8L757,250.8z M823.4,83.8h26c1.5,0,2.5-0.7,3.5-1.6c13.7-12.7,27.4-25.3,41.1-38
	c0.5-0.4,1.1-0.8,1.3-1.6c-0.8-0.7-1.9-0.3-2.8-0.3c-13.2,0-26.4,0-39.7-0.1c-2.1,0-3.3,0.6-4.5,2.4c-8.3,12.4-16.6,24.6-24.9,37
	c-0.4,0.6-1.1,1.1-0.9,2C822.8,83.7,823.1,83.8,823.4,83.8L823.4,83.8z M1096,79.2h36.5c2.6,0,2.6,0,2.6-2.5V47.3
	c0-2.4-0.1-2.3-2.2-2.3h-37.3c-2.1,0-2.2,0-2.2,2.3v29.4C1093.4,79.1,1093.4,79.2,1096,79.2z M717.6,79.2h37.3c2,0,2.1-0.1,2.1-2.1
	v-30c0-2,0-2-2.1-2h-37.7c-1.4,0-1.8,0.4-1.8,1.8c0.1,10.1,0,20.2,0,30.3C715.4,79.1,715.5,79.2,717.6,79.2z"/>
</svg>
