<svg xmlns="http://www.w3.org/2000/svg" width="500" height="69" viewBox="0 0 500 69" version="1.1"><path d="" stroke="none" fill="#201c1c" fill-rule="evenodd"/><path d="M 28.313 3.805 L 31 6.609 31 34.630 L 31 62.651 28.500 65 C 27.125 66.292, 26 67.720, 26 68.174 C 26 68.628, 38.150 69, 53 69 L 80 69 80 58.500 C 80 50.207, 79.708 48, 78.611 48 C 77.803 48, 76.934 49.538, 76.532 51.679 C 75.231 58.617, 68.356 63.257, 58 64.186 L 54.500 64.500 54.222 50.750 L 53.944 37 57.400 37 C 61.417 37, 63.861 39.057, 64.674 43.121 C 65.063 45.065, 65.859 46, 67.125 46 C 68.845 46, 69 45.089, 69 35 C 69 24.667, 68.879 24, 67 24 C 65.667 24, 65 24.667, 65 26 C 65 29.157, 61.446 32, 57.500 32 L 54 32 54 18.500 L 54 5 60.353 5 L 66.707 5 71.361 12 C 74.531 16.766, 76.652 19, 78.008 19 C 79.850 19, 80 18.321, 80 10 L 80 1 52.813 1 L 25.626 1 28.313 3.805 M 86 1.826 C 86 2.280, 87.125 3.708, 88.500 5 L 91 7.349 91 35 L 91 62.651 88.500 65 C 87.125 66.292, 86 67.720, 86 68.174 C 86 68.628, 97.700 69, 112 69 L 138 69 138 59 C 138 50.778, 137.733 49, 136.500 49 C 135.547 49, 135 49.959, 135 51.632 C 135 58.267, 128.513 63.560, 118.999 64.686 L 114 65.279 114 35.944 L 114 6.609 116.687 3.805 L 119.374 1 102.687 1 C 93.509 1, 86 1.372, 86 1.826 M 184.500 1.870 C 171.666 5.301, 164.901 15.492, 167.948 26.805 C 169.721 33.390, 173.984 37.309, 186.136 43.525 C 192.204 46.629, 198.030 50.030, 199.084 51.084 C 203.513 55.513, 199.512 64, 192.996 64 C 186.918 64, 178.398 58.111, 174.879 51.479 C 171.131 44.412, 170 45.551, 170 56.393 C 170 63.628, 170.330 65.912, 171.434 66.336 C 175.077 67.734, 190.005 69.086, 195.450 68.511 C 203.973 67.612, 213.365 62.916, 216.690 57.893 C 219.513 53.626, 220.695 46.517, 219.574 40.541 C 218.567 35.177, 213.409 30.795, 200.123 24.022 C 190.888 19.313, 187.965 17.330, 187.067 15.162 C 184.824 9.746, 188.754 5, 195.482 5 C 197.127 5, 199.908 7.252, 204.744 12.500 C 213.954 22.496, 215 22.405, 215 11.607 C 215 4.547, 214.722 3.103, 213.250 2.515 C 210.612 1.461, 187.932 0.952, 184.500 1.870 M 238.399 3.218 C 240.249 9.723, 240.014 11.160, 234.070 29.701 C 230.710 40.181, 226.395 52.745, 224.480 57.621 C 222.566 62.497, 221 67.052, 221 67.743 C 221 68.659, 223.440 69, 230 69 C 238.144 69, 239 68.821, 239 67.119 C 239 65.564, 235.644 62.234, 230.671 58.855 C 230.094 58.463, 230.428 55.600, 231.518 51.571 L 233.315 44.931 242.803 45.216 L 252.291 45.500 254.711 53.911 L 257.130 62.321 254.404 64.495 C 249.591 68.333, 251.762 69, 269.059 69 C 281.180 69, 284.984 68.700, 284.935 67.750 C 284.899 67.063, 279.808 51.875, 273.620 34 L 262.370 1.500 250.060 1.218 L 237.750 0.936 238.399 3.218 M 293.411 4.077 L 296 7.153 296 34.902 L 296 62.651 293.500 65 C 292.125 66.292, 291 67.720, 291 68.174 C 291 68.628, 302.700 69, 317 69 L 343 69 343 59 C 343 53.500, 342.656 49, 342.235 49 C 341.814 49, 340.668 51.258, 339.688 54.017 C 337.404 60.447, 332.557 63.881, 324.609 64.701 L 319 65.280 319 35.945 L 319 6.609 321.687 3.805 L 324.374 1 307.598 1 L 290.822 1 293.411 4.077 M 342 10.500 C 342 17.572, 342.328 20, 343.285 20 C 343.992 20, 346.984 16.625, 349.934 12.500 C 354.458 6.175, 355.744 5, 358.149 5 L 361 5 361 33.826 L 361 62.651 358.500 65 C 357.125 66.292, 356 67.720, 356 68.174 C 356 68.628, 363.425 69, 372.500 69 C 381.575 69, 389 68.628, 389 68.174 C 389 67.720, 387.875 66.292, 386.500 65 L 384 62.651 384 33.826 L 384 5 386.993 5 C 389.558 5, 390.779 6.073, 395.532 12.500 C 403.058 22.677, 404 22.455, 404 10.500 L 404 1 373 1 L 342 1 342 10.500 M 428.734 2.088 C 414.608 5.416, 406.985 15.740, 406.198 32.606 C 405.698 43.342, 407.402 50.494, 411.960 56.785 C 419.995 67.879, 440.175 71.978, 456.621 65.859 C 463.140 63.433, 468.579 58.148, 471.847 51.067 C 474.049 46.295, 474.422 44.072, 474.458 35.500 C 474.513 22.504, 472.492 16.396, 465.983 9.888 C 462.295 6.200, 459.772 4.701, 454.522 3.079 C 447.372 0.871, 435.789 0.426, 428.734 2.088 M 435.165 7.517 C 432.210 11.274, 431.483 17.236, 431.630 36.500 C 431.777 55.631, 432.963 61.561, 437.109 63.887 C 441.006 66.075, 444.812 64.635, 446.816 60.214 C 448.227 57.101, 448.500 53.019, 448.500 35 C 448.500 15.500, 448.314 13.128, 446.500 9.500 C 444.784 6.069, 443.983 5.457, 440.865 5.196 C 437.930 4.951, 436.832 5.398, 435.165 7.517 M 239.208 27.831 C 236.893 34.843, 235 40.900, 235 41.290 C 235 41.681, 238.600 42, 243 42 C 247.400 42, 251 41.754, 251 41.454 C 251 40.842, 243.852 15.618, 243.585 15.291 C 243.492 15.176, 241.522 20.819, 239.208 27.831" stroke="none" fill="#1c1c1c" fill-rule="evenodd"/></svg>