<?xml version="1.0" encoding="UTF-8" standalone="no"?>
<!-- Created with Inkscape (http://www.inkscape.org/) -->

<svg
   version="1.1"
   id="svg1"
   width="746"
   height="183"
   viewBox="0 0 746 183"
   sodipodi:docname="Diario_RED_logo.svg"
   inkscape:version="1.3 (0e150ed6c4, 2023-07-21)"
   xmlns:inkscape="http://www.inkscape.org/namespaces/inkscape"
   xmlns:sodipodi="http://sodipodi.sourceforge.net/DTD/sodipodi-0.dtd"
   xmlns="http://www.w3.org/2000/svg"
   xmlns:svg="http://www.w3.org/2000/svg">
  <defs
     id="defs1" />
  <sodipodi:namedview
     id="namedview1"
     pagecolor="#ffffff"
     bordercolor="#cccccc"
     borderopacity="1"
     inkscape:showpageshadow="0"
     inkscape:pageopacity="1"
     inkscape:pagecheckerboard="0"
     inkscape:deskcolor="#d1d1d1"
     inkscape:zoom="1.0455764"
     inkscape:cx="288.8359"
     inkscape:cy="69.339744"
     inkscape:window-width="1920"
     inkscape:window-height="1007"
     inkscape:window-x="0"
     inkscape:window-y="0"
     inkscape:window-maximized="1"
     inkscape:current-layer="g1" />
  <g
     inkscape:groupmode="layer"
     inkscape:label="Image"
     id="g1">
    <rect
       style="fill:#575ee5;fill-opacity:1;stroke:none;stroke-width:49.0592;stroke-linecap:round;stroke-linejoin:round"
       id="rect9"
       width="746"
       height="183"
       x="0"
       y="0"
       ry="0" />
    <path
       style="fill:#fafaff;fill-opacity:1"
       d="M 65.436169,166.95418 C 57.985295,165.98076 51.874342,162.90693 47.842424,158.10446 42.622598,151.88705 41.004505,146.03492 40.071653,130 38.960678,110.90332 36.681647,104.47724 29.75,100.89651 26.408618,99.170435 26,98.542867 26,95.137147 26,91.784404 26.435677,91.080656 29.547133,89.407471 36.635972,85.595449 38.974788,79.038963 40.037304,60 40.669212,48.677003 41.317124,44.404725 42.994406,40.501108 47.763387,29.40204 54.879317,24.123356 66.25,23.249822 L 73,22.731265 v 4.56698 c 0,4.841087 -0.01369,4.853898 -6.598618,6.173304 -3.290359,0.659282 -7.803007,4.968901 -10.675615,10.195307 -1.185004,2.155989 -2.223192,8.20431 -3.25245,18.94827 -1.912111,19.95966 -2.670349,22.42236 -8.772531,28.492542 C 40.995818,93.798451 39.228623,96 39.773685,96 c 0.545061,0 2.783325,1.792304 4.973919,3.982898 4.944668,4.944672 5.844536,8.177392 7.753754,27.854922 0.880771,9.07775 2.14447,16.7209 3.096191,18.72651 C 57.760497,151.1224 64.419776,157 67.421093,157 72.16194,157 73,157.91739 73,163.10699 c 0,2.69115 -0.3375,4.83595 -0.75,4.76621 -0.4125,-0.0697 -3.478724,-0.4833 -6.813831,-0.91902 z M 421,162.88863 c 0,-4.98512 -0.068,-4.91503 6.08857,-6.27422 1.42371,-0.31431 4.07434,-2.09105 5.89028,-3.94829 5.23573,-5.35483 6.99278,-11.32498 7.99517,-27.16612 1.01531,-16.04551 2.27226,-20.01036 8.32185,-26.25 L 453.41642,95 449.29587,90.75 C 443.24628,84.510364 441.98933,80.545506 440.97402,64.5 439.97163,48.658862 438.21458,42.688709 432.97885,37.333883 431.16291,35.476636 428.51228,33.699904 427.08857,33.38559 420.95547,32.03158 421,32.076123 421,27.295702 v -4.569523 l 6.27941,0.504051 c 6.36357,0.510806 14.04886,3.614724 16.50478,6.665908 6.70451,8.329556 8.83934,15.934654 10.19168,36.306791 0.97941,14.754122 2.75593,19.153989 9.19493,22.772912 3.69717,2.077924 3.91673,2.460285 3.63212,6.32545 -0.26168,3.553796 -0.78004,4.364228 -3.80762,5.953089 -6.09023,3.19614 -8.06331,8.13953 -9.02379,22.60846 -2.0608,31.0444 -8.06523,40.78121 -26.51869,43.00279 L 421,167.64248 Z M 220.80665,136.30679 C 202.60768,131.5289 197.68632,107.0843 213.24958,98.770539 217.16124,96.680963 219.13386,96.46015 238,96 l 20.5,-0.5 0.30849,-2.667816 c 0.53261,-4.605927 -4.14096,-12.250944 -9.35851,-15.308628 -3.9427,-2.310577 -5.75627,-2.714297 -12.0816,-2.689489 -6.38002,0.02502 -8.06666,0.424048 -11.81442,2.79506 C 221.45307,80.223546 218,85.20835 218,88.533927 218,89.644319 216.66565,90 212.5,90 c -3.025,0 -5.5,-0.409957 -5.5,-0.911016 0,-0.501059 0.97419,-3.456721 2.16486,-6.568139 3.89036,-10.166133 15.01796,-16.445583 29.23247,-16.496257 13.17153,-0.04695 22.67629,5.417554 28.33071,16.287983 2.67512,5.142822 2.70167,5.395957 3.08771,29.437429 L 270.20514,136 H 265.10257 260 v -4.44098 c 0,-5.07385 -1.51702,-6.69359 -3.55029,-3.79069 -2.30348,3.28868 -10.61212,7.95684 -16.24893,9.12937 -6.86213,1.4274 -12.34236,1.26043 -19.39413,-0.59091 z M 246.5,127.1327 c 7.25054,-3.55531 11.80379,-10.25461 12.80724,-18.84358 0.74668,-6.39119 0.0379,-6.63517 -17.57051,-6.04771 -18.96072,0.63258 -23.91458,2.28246 -25.80574,8.5946 -1.76722,5.89844 0.36717,11.7693 5.56901,15.3182 2.2,1.50092 5.125,2.93981 6.5,3.19753 4.78768,0.89737 14.52691,-0.27083 18.5,-2.21904 z m 119.2503,9.30724 c -13.50877,-3.27384 -21.79482,-12.81507 -24.80098,-28.55785 -1.10866,-5.80585 -1.03949,-7.60586 0.56368,-14.669073 4.02921,-17.751797 16.50738,-27.12938 36.17798,-27.188429 C 382.19602,66.011065 386.16008,66.45 386.5,67 c 0.33992,0.55 1.42445,1 2.41008,1 2.50279,0 11.08648,4.704244 13.66975,7.491632 7.1831,7.7507 9.85474,14.911147 9.89056,26.508368 0.0567,18.37645 -9.07191,30.5703 -25.84747,34.52647 -7.48963,1.76628 -13.32728,1.74208 -20.87262,-0.0865 z m 23.14291,-9.88582 c 8.51051,-4.31261 13.06623,-12.88173 13.09224,-24.62598 0.0379,-17.104103 -9.41547,-27.150362 -25.548,-27.150362 -13.79531,0 -22.00281,6.796001 -24.44013,20.237003 -1.9018,10.487769 0.54999,21.117859 6.27042,27.186369 2.41572,2.56271 8.88019,6.06442 13.23226,7.16773 3.89953,0.98858 12.69731,-0.43517 17.39321,-2.81476 z m 218.30201,10.37911 c -10.33708,-2.03544 -18.28317,-8.53438 -22.9963,-18.80819 -3.67831,-8.01807 -3.78846,-21.755365 -0.24899,-31.051708 C 588.95566,73.925922 601.22999,66 616.58475,66 c 17.90165,0 31.92861,12.499681 34.02285,30.318393 l 0.66416,5.650967 -29.38588,0.26532 L 592.5,102.5 l -0.29866,3.55359 c -0.35302,4.20045 2.42048,11.15508 6.27588,15.73697 4.17712,4.96422 9.70304,7.20944 17.74385,7.20944 11.5673,0 20.48533,-6.28199 22.3822,-15.76636 C 639.23599,110.07007 639.36648,110 644.625,110 c 6.06109,0 6.18571,0.23443 3.70343,6.96657 -2.12792,5.77107 -7.46287,12.46194 -12.44347,15.60605 -7.13495,4.5041 -18.8885,6.29054 -28.68974,4.36061 z M 638.54405,92.25 c -0.95027,-5.251758 -4.81988,-10.760318 -9.80416,-13.95662 -6.0213,-3.861321 -16.8369,-4.477692 -22.97532,-1.30934 -2.34551,1.210642 -5.33643,3.171996 -6.64649,4.358564 -2.79112,2.528023 -6.06472,9.190772 -6.09612,12.407396 L 593,96 h 23.11129 23.11129 z m 42.6016,44.17798 C 666.64081,132.52597 658,119.67319 658,102 c 0,-16.436452 7.79325,-29.104305 20.82902,-33.857387 12.00345,-4.376676 25.38626,-1.920829 34.90413,6.405174 2.75348,2.408673 5.28994,4.095787 5.63659,3.749143 C 719.71638,77.950285 720,68.966667 720,58.333333 V 39 h 5 5 V 87.5 136 h -5 -5 v -4.94098 c 0,-2.71754 -0.38459,-5.17867 -0.85464,-5.46918 -0.47005,-0.29051 -1.93255,0.63677 -3.25,2.06063 -3.73546,4.03716 -9.37382,7.2391 -15.6059,8.86235 -6.99437,1.82181 -12.14108,1.799 -19.14381,-0.0848 z M 706.07406,126.779 C 713.70288,122.76886 720,111.56413 720,102 c 0,-9.553495 -6.13597,-20.475519 -13.93409,-24.802687 -5.99268,-3.32533 -17.58663,-3.502794 -23.74039,-0.363383 -5.0948,2.599177 -11.00848,9.365455 -12.32392,14.100718 -1.26448,4.551802 -1.29069,17.570562 -0.0441,21.917062 2.02275,7.05291 10.2782,14.40856 18.54253,16.52148 4.00265,1.02335 13.30416,-0.34969 17.57406,-2.59419 z M 89,89.5 V 43 h 22.03619 c 19.29943,0 23.11271,0.270001 30.70431,2.174028 10.29847,2.582933 15.14522,5.160643 21.42291,11.39364 10.21499,10.142264 14.40485,24.605283 12.07515,41.682332 -1.32791,9.73376 -4.58784,17.00086 -10.51614,23.44275 -5.34251,5.80537 -10.27832,8.92453 -18.8752,11.9281 C 139.37664,135.88153 137.79178,136 114.01878,136 H 89 Z m 42.90215,37.45304 c 13.97888,-1.7528 23.4819,-8.12386 29.24887,-19.60915 3.20743,-6.38782 3.34732,-7.13832 3.30977,-17.756803 -0.0328,-9.28394 -0.4013,-11.879015 -2.26562,-15.956449 -3.33571,-7.295452 -12.4628,-15.70848 -20.26751,-18.681871 C 135.97029,52.679167 134.18301,52.5 117.5,52.5 h -18 l -0.262509,36.933252 c -0.205286,28.882388 0.0127,37.107948 0.999999,37.734688 1.81416,1.15162 21.85093,1.01564 31.66466,-0.2149 z M 185,102 V 68 h 5 5 v 34 34 h -5 -5 z m 94,0 V 68 h 5 5 v 5 c 0,2.75 0.3375,4.9996 0.75,4.999112 0.4125,-4.88e-4 2.50167,-1.806573 4.6426,-4.013521 2.76359,-2.848804 5.51898,-4.483133 9.5,-5.634818 3.08407,-0.892202 6.1699,-1.834263 6.8574,-2.093468 0.91499,-0.344976 1.25,1.165431 1.25,5.635706 C 312,77.89206 311.95128,78 309.2434,78 301.14017,78 294.44779,82.679505 290.89045,90.832905 289.23972,94.616364 289,97.754859 289,115.58291 V 136 h -5 -5 z m 42,0 V 68 h 5.5 5.5 v 34 34 H 326.5 321 Z M 484,89.5 V 43 h 5.5 5.5 v 7 c 0,5.555556 0.30952,7 1.5,7 0.825,0 1.5,-0.384799 1.5,-0.855109 0,-1.628323 11.5282,-8.803158 18,-11.202708 5.7308,-2.124808 8.15674,-2.408891 20.5,-2.400595 13.78472,0.0093 14.10339,0.05991 20.72316,3.293594 7.49706,3.662223 13.19061,9.476124 14.91442,15.229675 0.60233,2.010413 0.92517,7.021352 0.71742,11.13542 -0.47687,9.443405 -3.2195,14.024982 -10.96279,18.313396 -5.16067,2.858096 -6.0041,3.001088 -19.64221,3.330092 -7.8375,0.18907 -14.25,0.700249 -14.25,1.135953 0,1.096225 4.58024,5.448302 25.52276,24.251332 l 18.12011,16.26895 -6.84109,0.29421 -6.84109,0.2942 -9.23034,-8.23065 C 543.65366,123.33091 539.275,119.3443 539,118.99865 c -0.275,-0.34566 -6.64789,-6.11176 -14.16197,-12.81356 L 511.17606,94 H 503.58803 496 v 21 21 h -6 -6 z m 67,-5.485022 c 1.925,-0.535627 5.16164,-2.344566 7.19254,-4.019865 6.74458,-5.563634 6.27635,-16.990156 -0.93996,-22.938442 -4.47467,-3.688406 -7.54413,-4.745537 -16.97342,-5.8457 -19.32405,-2.254636 -37.08322,4.409156 -42.55667,15.968581 -1.77276,3.743913 -3.31554,15.051853 -2.28178,16.724507 0.86781,1.404161 50.55498,1.503357 55.55929,0.110919 z M 184,49.5 V 43 h 5.5 5.5 v 6.5 6.5 h -5.5 -5.5 z m 137,0 V 43 h 6 6 v 6.5 6.5 h -6 -6 z"
       id="path9" />
  </g>
</svg>
