<?xml version="1.0" encoding="UTF-8" standalone="no"?>
<!-- Created with Inkscape (http://www.inkscape.org/) -->

<svg
   xmlns:dc="http://purl.org/dc/elements/1.1/"
   xmlns:cc="http://creativecommons.org/ns#"
   xmlns:rdf="http://www.w3.org/1999/02/22-rdf-syntax-ns#"
   xmlns:svg="http://www.w3.org/2000/svg"
   xmlns="http://www.w3.org/2000/svg"
   xmlns:sodipodi="http://sodipodi.sourceforge.net/DTD/sodipodi-0.dtd"
   xmlns:inkscape="http://www.inkscape.org/namespaces/inkscape"
   id="svg2985"
   version="1.1"
   inkscape:version="0.48.5 r10040"
   width="1000"
   height="1156"
   xml:space="preserve"
   sodipodi:docname="A.svg"><metadata
     id="metadata2991"><rdf:RDF><cc:Work
         rdf:about=""><dc:format>image/svg+xml</dc:format><dc:type
           rdf:resource="http://purl.org/dc/dcmitype/StillImage" /><dc:title></dc:title></cc:Work></rdf:RDF></metadata><defs
     id="defs2989"><clipPath
       clipPathUnits="userSpaceOnUse"
       id="clipPath3001"><path
         d="m 626.457,470.551 -289.134,0 0,-365.669 289.134,0 0,365.669 z"
         id="path3003"
         inkscape:connector-curvature="0" /></clipPath><clipPath
       clipPathUnits="userSpaceOnUse"
       id="clipPath3021"><path
         d="m 0,0 674.646,0 0,708.662 L 0,708.662 0,0 z"
         id="path3023"
         inkscape:connector-curvature="0" /></clipPath><clipPath
       clipPathUnits="userSpaceOnUse"
       id="clipPath3033"><path
         d="m 298.976,73.518 20,0 0,14.539 -20,0 0,-14.539 z"
         id="path3035"
         inkscape:connector-curvature="0" /></clipPath><clipPath
       clipPathUnits="userSpaceOnUse"
       id="clipPath3087"><path
         d="m 56.693,101.48 280.63,0 0,352.063 -280.63,0 0,-352.063 z"
         id="path3089"
         inkscape:connector-curvature="0" /></clipPath><clipPath
       clipPathUnits="userSpaceOnUse"
       id="clipPath3107"><path
         d="m 64.845,154.096 264.326,0 0,265.258 -264.326,0 0,-265.258 z"
         id="path3109"
         inkscape:connector-curvature="0" /></clipPath><clipPath
       clipPathUnits="userSpaceOnUse"
       id="clipPath3119"><path
         d="m 56.693,101.48 280.63,0 0,352.063 -280.63,0 0,-352.063 z"
         id="path3121"
         inkscape:connector-curvature="0" /></clipPath><clipPath
       clipPathUnits="userSpaceOnUse"
       id="clipPath3135"><path
         d="m 56.693,101.48 280.63,0 0,352.063 -280.63,0 0,-352.063 z"
         id="path3137"
         inkscape:connector-curvature="0" /></clipPath><clipPath
       clipPathUnits="userSpaceOnUse"
       id="clipPath3151"><path
         d="m 56.693,101.48 280.63,0 0,352.063 -280.63,0 0,-352.063 z"
         id="path3153"
         inkscape:connector-curvature="0" /></clipPath><clipPath
       clipPathUnits="userSpaceOnUse"
       id="clipPath3213"><path
         d="m 56.693,101.48 280.63,0 0,352.063 -280.63,0 0,-352.063 z"
         id="path3215"
         inkscape:connector-curvature="0" /></clipPath><clipPath
       clipPathUnits="userSpaceOnUse"
       id="clipPath3229"><path
         d="m 56.693,101.48 280.63,0 0,352.063 -280.63,0 0,-352.063 z"
         id="path3231"
         inkscape:connector-curvature="0" /></clipPath><clipPath
       clipPathUnits="userSpaceOnUse"
       id="clipPath3255"><path
         d="m 56.693,101.48 280.63,0 0,352.063 -280.63,0 0,-352.063 z"
         id="path3257"
         inkscape:connector-curvature="0" /></clipPath><clipPath
       clipPathUnits="userSpaceOnUse"
       id="clipPath3283"><path
         d="m 56.693,101.48 280.63,0 0,352.063 -280.63,0 0,-352.063 z"
         id="path3285"
         inkscape:connector-curvature="0" /></clipPath><clipPath
       clipPathUnits="userSpaceOnUse"
       id="clipPath3309"><path
         d="m 56.693,101.48 280.63,0 0,352.063 -280.63,0 0,-352.063 z"
         id="path3311"
         inkscape:connector-curvature="0" /></clipPath><clipPath
       clipPathUnits="userSpaceOnUse"
       id="clipPath3325"><path
         d="m 56.693,101.48 280.63,0 0,352.063 -280.63,0 0,-352.063 z"
         id="path3327"
         inkscape:connector-curvature="0" /></clipPath><clipPath
       clipPathUnits="userSpaceOnUse"
       id="clipPath3349"><path
         d="m 56.693,101.48 280.63,0 0,352.063 -280.63,0 0,-352.063 z"
         id="path3351"
         inkscape:connector-curvature="0" /></clipPath><clipPath
       clipPathUnits="userSpaceOnUse"
       id="clipPath3361"><path
         d="m 64.845,154.096 264.326,0 0,265.258 -264.326,0 0,-265.258 z"
         id="path3363"
         inkscape:connector-curvature="0" /></clipPath><clipPath
       clipPathUnits="userSpaceOnUse"
       id="clipPath3377"><path
         d="m 56.693,101.48 280.63,0 0,352.063 -280.63,0 0,-352.063 z"
         id="path3379"
         inkscape:connector-curvature="0" /></clipPath><clipPath
       clipPathUnits="userSpaceOnUse"
       id="clipPath3393"><path
         d="m 56.693,101.48 280.63,0 0,352.063 -280.63,0 0,-352.063 z"
         id="path3395"
         inkscape:connector-curvature="0" /></clipPath><clipPath
       clipPathUnits="userSpaceOnUse"
       id="clipPath3405"><path
         d="m 64.845,154.096 264.326,0 0,265.258 -264.326,0 0,-265.258 z"
         id="path3407"
         inkscape:connector-curvature="0" /></clipPath><clipPath
       clipPathUnits="userSpaceOnUse"
       id="clipPath3421"><path
         d="m 56.693,101.48 280.63,0 0,352.063 -280.63,0 0,-352.063 z"
         id="path3423"
         inkscape:connector-curvature="0" /></clipPath><clipPath
       clipPathUnits="userSpaceOnUse"
       id="clipPath3443"><path
         d="m 56.693,101.48 280.63,0 0,352.063 -280.63,0 0,-352.063 z"
         id="path3445"
         inkscape:connector-curvature="0" /></clipPath><clipPath
       clipPathUnits="userSpaceOnUse"
       id="clipPath3459"><path
         d="m 56.693,101.48 280.63,0 0,352.063 -280.63,0 0,-352.063 z"
         id="path3461"
         inkscape:connector-curvature="0" /></clipPath><clipPath
       clipPathUnits="userSpaceOnUse"
       id="clipPath3475"><path
         d="m 56.693,101.48 280.63,0 0,352.063 -280.63,0 0,-352.063 z"
         id="path3477"
         inkscape:connector-curvature="0" /></clipPath><clipPath
       clipPathUnits="userSpaceOnUse"
       id="clipPath3491"><path
         d="m 56.693,101.48 280.63,0 0,352.063 -280.63,0 0,-352.063 z"
         id="path3493"
         inkscape:connector-curvature="0" /></clipPath><clipPath
       clipPathUnits="userSpaceOnUse"
       id="clipPath3507"><path
         d="m 56.693,101.48 280.63,0 0,352.063 -280.63,0 0,-352.063 z"
         id="path3509"
         inkscape:connector-curvature="0" /></clipPath><clipPath
       clipPathUnits="userSpaceOnUse"
       id="clipPath3523"><path
         d="m 56.693,101.48 280.63,0 0,352.063 -280.63,0 0,-352.063 z"
         id="path3525"
         inkscape:connector-curvature="0" /></clipPath><clipPath
       clipPathUnits="userSpaceOnUse"
       id="clipPath3539"><path
         d="m 56.693,101.48 280.63,0 0,352.063 -280.63,0 0,-352.063 z"
         id="path3541"
         inkscape:connector-curvature="0" /></clipPath><clipPath
       clipPathUnits="userSpaceOnUse"
       id="clipPath3555"><path
         d="m 56.693,101.48 280.63,0 0,352.063 -280.63,0 0,-352.063 z"
         id="path3557"
         inkscape:connector-curvature="0" /></clipPath><clipPath
       clipPathUnits="userSpaceOnUse"
       id="clipPath3571"><path
         d="m 56.693,101.48 280.63,0 0,352.063 -280.63,0 0,-352.063 z"
         id="path3573"
         inkscape:connector-curvature="0" /></clipPath><clipPath
       clipPathUnits="userSpaceOnUse"
       id="clipPath3587"><path
         d="m 56.693,101.48 280.63,0 0,352.063 -280.63,0 0,-352.063 z"
         id="path3589"
         inkscape:connector-curvature="0" /></clipPath><clipPath
       clipPathUnits="userSpaceOnUse"
       id="clipPath3603"><path
         d="m 56.693,101.48 280.63,0 0,352.063 -280.63,0 0,-352.063 z"
         id="path3605"
         inkscape:connector-curvature="0" /></clipPath><clipPath
       clipPathUnits="userSpaceOnUse"
       id="clipPath3619"><path
         d="m 56.693,101.48 280.63,0 0,352.063 -280.63,0 0,-352.063 z"
         id="path3621"
         inkscape:connector-curvature="0" /></clipPath><clipPath
       clipPathUnits="userSpaceOnUse"
       id="clipPath3635"><path
         d="m 56.693,101.48 280.63,0 0,352.063 -280.63,0 0,-352.063 z"
         id="path3637"
         inkscape:connector-curvature="0" /></clipPath><clipPath
       clipPathUnits="userSpaceOnUse"
       id="clipPath3651"><path
         d="m 56.693,101.48 280.63,0 0,352.063 -280.63,0 0,-352.063 z"
         id="path3653"
         inkscape:connector-curvature="0" /></clipPath><clipPath
       clipPathUnits="userSpaceOnUse"
       id="clipPath3667"><path
         d="m 56.693,101.48 280.63,0 0,352.063 -280.63,0 0,-352.063 z"
         id="path3669"
         inkscape:connector-curvature="0" /></clipPath><clipPath
       clipPathUnits="userSpaceOnUse"
       id="clipPath3683"><path
         d="m 56.693,101.48 280.63,0 0,352.063 -280.63,0 0,-352.063 z"
         id="path3685"
         inkscape:connector-curvature="0" /></clipPath><clipPath
       clipPathUnits="userSpaceOnUse"
       id="clipPath3699"><path
         d="m 56.693,101.48 280.63,0 0,352.063 -280.63,0 0,-352.063 z"
         id="path3701"
         inkscape:connector-curvature="0" /></clipPath><clipPath
       clipPathUnits="userSpaceOnUse"
       id="clipPath3715"><path
         d="m 56.693,101.48 280.63,0 0,352.063 -280.63,0 0,-352.063 z"
         id="path3717"
         inkscape:connector-curvature="0" /></clipPath><clipPath
       clipPathUnits="userSpaceOnUse"
       id="clipPath3731"><path
         d="m 56.693,101.48 280.63,0 0,352.063 -280.63,0 0,-352.063 z"
         id="path3733"
         inkscape:connector-curvature="0" /></clipPath><clipPath
       clipPathUnits="userSpaceOnUse"
       id="clipPath3747"><path
         d="m 56.693,101.48 280.63,0 0,352.063 -280.63,0 0,-352.063 z"
         id="path3749"
         inkscape:connector-curvature="0" /></clipPath><clipPath
       clipPathUnits="userSpaceOnUse"
       id="clipPath3775"><path
         d="m 56.693,101.48 280.63,0 0,352.063 -280.63,0 0,-352.063 z"
         id="path3777"
         inkscape:connector-curvature="0" /></clipPath><clipPath
       clipPathUnits="userSpaceOnUse"
       id="clipPath3791"><path
         d="m 56.693,101.48 280.63,0 0,352.063 -280.63,0 0,-352.063 z"
         id="path3793"
         inkscape:connector-curvature="0" /></clipPath><clipPath
       clipPathUnits="userSpaceOnUse"
       id="clipPath3807"><path
         d="m 56.693,101.48 280.63,0 0,352.063 -280.63,0 0,-352.063 z"
         id="path3809"
         inkscape:connector-curvature="0" /></clipPath><clipPath
       clipPathUnits="userSpaceOnUse"
       id="clipPath3823"><path
         d="m 56.693,101.48 280.63,0 0,352.063 -280.63,0 0,-352.063 z"
         id="path3825"
         inkscape:connector-curvature="0" /></clipPath><clipPath
       clipPathUnits="userSpaceOnUse"
       id="clipPath3839"><path
         d="m 56.693,101.48 280.63,0 0,352.063 -280.63,0 0,-352.063 z"
         id="path3841"
         inkscape:connector-curvature="0" /></clipPath><clipPath
       clipPathUnits="userSpaceOnUse"
       id="clipPath3855"><path
         d="m 56.693,101.48 280.63,0 0,352.063 -280.63,0 0,-352.063 z"
         id="path3857"
         inkscape:connector-curvature="0" /></clipPath><clipPath
       clipPathUnits="userSpaceOnUse"
       id="clipPath3871"><path
         d="m 56.693,101.48 280.63,0 0,352.063 -280.63,0 0,-352.063 z"
         id="path3873"
         inkscape:connector-curvature="0" /></clipPath><clipPath
       clipPathUnits="userSpaceOnUse"
       id="clipPath3887"><path
         d="m 56.693,101.48 280.63,0 0,352.063 -280.63,0 0,-352.063 z"
         id="path3889"
         inkscape:connector-curvature="0" /></clipPath><clipPath
       clipPathUnits="userSpaceOnUse"
       id="clipPath3903"><path
         d="m 56.693,101.48 280.63,0 0,352.063 -280.63,0 0,-352.063 z"
         id="path3905"
         inkscape:connector-curvature="0" /></clipPath><clipPath
       clipPathUnits="userSpaceOnUse"
       id="clipPath3919"><path
         d="m 56.693,101.48 280.63,0 0,352.063 -280.63,0 0,-352.063 z"
         id="path3921"
         inkscape:connector-curvature="0" /></clipPath><clipPath
       clipPathUnits="userSpaceOnUse"
       id="clipPath3953"><path
         d="m 476.504,571.181 138.614,0 0,77.598 -138.614,0 0,-77.598 z"
         id="path3955"
         inkscape:connector-curvature="0" /></clipPath><clipPath
       clipPathUnits="userSpaceOnUse"
       id="clipPath4073"><path
         d="m 0,0 674.646,0 0,708.662 L 0,708.662 0,0 z"
         id="path4075"
         inkscape:connector-curvature="0" /></clipPath><clipPath
       clipPathUnits="userSpaceOnUse"
       id="clipPath4235"><path
         d="m 0,0 674.646,0 0,708.662 L 0,708.662 0,0 z"
         id="path4237"
         inkscape:connector-curvature="0" /></clipPath><clipPath
       clipPathUnits="userSpaceOnUse"
       id="clipPath4305"><path
         d="m 0,0 674.646,0 0,708.662 L 0,708.662 0,0 z"
         id="path4307"
         inkscape:connector-curvature="0" /></clipPath></defs><sodipodi:namedview
     pagecolor="#ffffff"
     bordercolor="#666666"
     borderopacity="1"
     objecttolerance="10"
     gridtolerance="10"
     guidetolerance="10"
     inkscape:pageopacity="0"
     inkscape:pageshadow="2"
     inkscape:window-width="1062"
     inkscape:window-height="994"
     id="namedview2987"
     showgrid="false"
     fit-margin-left="0.5"
     fit-margin-bottom="0.5"
     fit-margin-top="0.5"
     fit-margin-right="0.5"
     inkscape:zoom="0.24650776"
     inkscape:cx="939.16352"
     inkscape:cy="193.42802"
     inkscape:window-x="850"
     inkscape:window-y="21"
     inkscape:window-maximized="0"
     inkscape:current-layer="g2993"
     showguides="true"
     inkscape:guide-bbox="true"><inkscape:grid
       type="xygrid"
       id="grid4352"
       empspacing="5"
       visible="true"
       enabled="true"
       snapvisiblegridlinesonly="true"
       originx="-526.5px"
       originy="443.19514px" /></sodipodi:namedview><g
     id="g2993"
     inkscape:groupmode="layer"
     inkscape:label="dppp_guidetopolicies_april2016"
     transform="matrix(1.25,0,0,-1.25,-39.369875,2039.1639)"><path
       style="fill:#44dd3a;fill-opacity:1;stroke:none"
       d="m 552.47259,1049.905 -61.08584,100.8628 -258.54942,0 0,241.5022 139.21891,238.6611 281.27906,0 -141.15967,-238.6611 118.43005,0 200.30476,-342.365 -186.09876,-103.70374 z"
       id="path4403"
       inkscape:connector-curvature="0"
       sodipodi:nodetypes="ccccccccccc" /><path
       style="fill:#3bb33b;fill-opacity:1;stroke:none"
       d="m 232.83733,707.54025 0,238.66101 258.54942,0 61.08584,103.70374 278.43785,0 -200.30476,-342.36475 z"
       id="path4401"
       inkscape:connector-curvature="0"
       sodipodi:nodetypes="ccccccc" /><path
       style="fill:#338a3b;fill-opacity:1;stroke:none"
       d="M 232.83733,707.54025 32.872528,1049.8245 232.83733,1392.27 372.05624,1150.7678 311.62735,1049.8245 372.05624,946.20126 z"
       id="path4399"
       inkscape:connector-curvature="0" /></g></svg>