<?xml version="1.0" encoding="utf-8"?>
<svg xmlns="http://www.w3.org/2000/svg" xml:space="preserve" viewBox="0 0 180 60">
  <path fill="white" d="M17.3 40.3h23.8L29.5 10.7 17.3 40.3zM48.9 60 43 45.1H15.4L9.3 60H0v-1.6c3.6-.6 5.3-2.4 6.5-5.2l20-48.9c-1.2-1.5-2.3-2.1-3.9-2.7V0h12.9l21.1 53.1c1 2.6 2.6 4.9 6.3 5.3V60h-14zm55.2-28.4c-3.4 1.3-6.9 1.8-9.8 1.8-4.6 0-8.9-1.4-11.2-2.9v25c3.6.6 7.2.8 10 .8 8.3 0 16.3-2.6 16.3-13.5 0-6-3.2-9.8-5.3-11.2zM91.9 3.7c-3.7 0-6.6.3-8.8.6v22.2c2.7 1.9 7.2 3.3 11.2 3.3 5.2 0 11.8-1.8 11.8-12.2 0-9.3-5.6-13.9-14.2-13.9zM73.8 8.3c0-4-1.7-5.6-5.1-6.7V0H95c11 0 20.8 5.7 20.8 16.4 0 5.5-2.5 9.4-5.9 12.1 4.9 1.8 9.3 6 9.3 13.5 0 13.9-11.6 18-23.8 18H68.7v-1.6c3.4-1.1 5.1-2.7 5.1-6.7V8.3zm98.8-4.6c1.6 0 2.4-1.7 3.1-3.7h1.6l2.7 17.1h-1.6c-5-5.9-12.3-12.8-22.5-12.8-11.9 0-21.1 8.8-21.1 22.8 0 15.2 9.8 26.6 24.7 26.6 6.6 0 13.3-2.1 19.4-6l.9 1.9c-3.7 3.7-11.5 10.3-25.8 10.3-15.8 0-29.1-11-29.1-30.3C124.8 14 137.6 0 155.2 0c10.7 0 15.2 3.7 17.4 3.7z"/>
</svg>